<svg width="143" height="128" viewBox="0 0 143 128" fill="none" xmlns="http://www.w3.org/2000/svg">
<path d="M71.4986 77.052C78.6897 77.052 84.5193 71.2085 84.5193 64.0001C84.5193 56.7918 78.6897 50.9482 71.4986 50.9482C64.3074 50.9482 58.4778 56.7918 58.4778 64.0001C58.4778 71.2085 64.3074 77.052 71.4986 77.052Z" fill="#61DAFB"/>
<path d="M120.956 42.4758C118.443 41.5599 115.816 40.644 113.075 39.8426C113.76 37.0948 114.331 34.347 114.788 31.7138C117.187 16.6011 114.56 5.95349 107.25 1.83184C105.08 0.57245 102.681 0 99.9401 0C91.9449 0 81.7796 5.95349 71.5 15.9141C61.2204 5.95349 51.0551 0 43.0599 0C40.3187 0 37.9201 0.57245 35.75 1.83184C28.4401 6.06798 25.8131 16.7156 28.2117 31.7138C28.6685 34.347 29.2396 37.0948 29.9249 39.8426C27.1837 40.644 24.5567 41.4454 22.0439 42.4758C7.76677 47.9714 0 55.5277 0 64C0 72.4723 7.88099 80.0286 22.0439 85.5242C24.5567 86.4401 27.1837 87.356 29.9249 88.1574C29.2396 90.9052 28.6685 93.653 28.2117 96.2862C25.8131 111.399 28.4401 122.047 35.75 126.168C37.9201 127.428 40.3187 128 43.0599 128C51.1693 128 61.3347 122.047 71.5 112.086C81.7796 122.047 91.9449 128 99.9401 128C102.681 128 105.08 127.428 107.25 126.168C114.56 121.932 117.187 111.284 114.788 96.2862C114.331 93.653 113.76 90.9052 113.075 88.1574C115.816 87.356 118.443 86.5546 120.956 85.5242C135.233 80.0286 143 72.4723 143 64C143 55.5277 135.233 47.9714 120.956 42.4758ZM104.052 7.55635C108.735 10.3041 110.334 18.7764 108.392 30.7979C108.05 33.2021 107.478 35.7209 106.793 38.3542C100.854 36.9803 94.5719 36.0644 87.9473 35.4919C84.0639 29.9964 80.0663 25.0733 76.0687 20.6082C84.5208 12.2504 93.0871 6.52594 100.054 6.52594C101.539 6.52594 102.91 6.86941 104.052 7.55635ZM91.2596 75.449C89.2037 79.1127 86.8051 82.7764 84.2923 86.4401C80.0663 86.7835 75.8403 86.898 71.5 86.898C67.0455 86.898 62.8195 86.7835 58.7077 86.4401C56.1949 82.7764 53.9105 79.1127 51.8546 75.449C49.6845 71.6708 47.6286 67.7782 45.8011 64C47.6286 60.2218 49.6845 56.3292 51.8546 52.551C53.9105 48.8873 56.3091 45.2236 58.8219 41.5599C63.0479 41.2165 67.274 41.102 71.6142 41.102C76.0687 41.102 80.2947 41.2165 84.4066 41.5599C86.9193 45.2236 89.2037 48.8873 91.2596 52.551C93.4297 56.3292 95.4856 60.2218 97.3131 64C95.3714 67.7782 93.4297 71.5564 91.2596 75.449ZM100.74 71.6708C102.453 75.678 103.823 79.5707 105.08 83.4633C101.196 84.3793 97.0847 85.0662 92.7444 85.6386C94.115 83.4633 95.5998 81.1735 96.8562 78.7692C98.2268 76.3649 99.4832 73.9606 100.74 71.6708ZM71.5 102.698C68.7588 99.7209 66.1318 96.5152 63.619 93.195C66.246 93.3095 68.873 93.424 71.5 93.424C74.127 93.424 76.754 93.3095 79.381 93.195C76.8682 96.5152 74.2412 99.7209 71.5 102.698ZM50.2556 85.5242C45.9153 84.9517 41.8035 84.2648 37.9201 83.3488C39.1765 79.5707 40.5471 75.5635 42.2604 71.5564C43.5168 73.8462 44.7732 76.2504 46.1438 78.5403C47.5144 81.059 48.885 83.2344 50.2556 85.5242ZM42.2604 56.3292C40.5471 52.322 39.1765 48.4293 37.9201 44.5367C41.8035 43.6208 45.9153 42.9338 50.2556 42.3614C48.885 44.5367 47.4002 46.8265 46.1438 49.2308C44.7732 51.6351 43.5168 54.0394 42.2604 56.3292ZM71.5 25.3023C74.2412 28.2791 76.8682 31.4848 79.381 34.805C76.754 34.6905 74.127 34.576 71.5 34.576C68.873 34.576 66.246 34.6905 63.619 34.805C66.1318 31.4848 68.7588 28.2791 71.5 25.3023ZM96.8562 49.3453L92.7444 42.4758C97.0847 43.0483 101.196 43.7352 105.08 44.6512C103.823 48.4293 102.453 52.4365 100.74 56.4437C99.4832 54.0394 98.2268 51.6351 96.8562 49.3453ZM34.6078 30.7979C32.6661 18.7764 34.2652 10.3041 38.9481 7.55635C40.0903 6.86941 41.4609 6.52594 42.9457 6.52594C49.7987 6.52594 58.365 12.136 66.9313 20.6082C62.9337 24.9589 58.9361 29.9964 55.0527 35.4919C48.4281 36.0644 42.1462 37.0948 36.2069 38.3542C35.5216 35.7209 35.0647 33.2021 34.6078 30.7979ZM6.39617 64C6.39617 58.619 12.9066 52.8945 24.3283 48.6583C26.6126 47.7424 29.1254 46.941 31.6382 46.254C33.4657 51.9785 35.75 58.0465 38.4912 64.1145C35.75 70.1825 33.3514 76.136 31.6382 81.8605C15.8762 77.2809 6.39617 70.4115 6.39617 64ZM38.9481 120.444C34.2652 117.696 32.6661 109.224 34.6078 97.2022C34.9505 94.7979 35.5216 92.2791 36.2069 89.6458C42.1462 91.0197 48.4281 91.9356 55.0527 92.5081C58.9361 98.0036 62.9337 102.927 66.9313 107.392C58.4792 115.75 49.9129 121.474 42.9457 121.474C41.4609 121.474 40.0903 121.131 38.9481 120.444ZM108.392 97.2022C110.334 109.224 108.735 117.696 104.052 120.444C102.91 121.131 101.539 121.474 100.054 121.474C93.2013 121.474 84.635 115.864 76.0687 107.392C80.0663 103.041 84.0639 98.0036 87.9473 92.5081C94.5719 91.9356 100.854 90.9052 106.793 89.6458C107.478 92.2791 107.935 94.7979 108.392 97.2022ZM118.672 79.3417C116.387 80.2576 113.875 81.059 111.362 81.746C109.534 76.0215 107.25 69.9535 104.509 63.8855C107.25 57.8175 109.649 51.864 111.362 46.1395C127.124 50.7191 136.604 57.5886 136.604 64C136.604 69.381 129.979 75.1056 118.672 79.3417Z" fill="#61DAFB"/>
</svg>
