<svg width="200" height="125" viewBox="0 0 200 125" fill="none" xmlns="http://www.w3.org/2000/svg">
<rect width="200" height="125" fill="white"/>
<path d="M68.6697 31.6102C68.38 31.5326 68.0624 31.551 67.7467 31.57C68.2227 32.1116 68.3838 32.6735 68.4473 33.2092L68.3436 33.5965C68.0842 34.5643 67.7688 34.5823 67.4201 35.1111C66.9479 35.7103 66.8117 36.6087 67.0435 37.293C67.0177 37.3896 67.0884 37.512 67.0884 37.512C67.428 34.6991 69.7819 34.8122 70.4734 34.1672C70.6807 33.3935 70.2306 32.7552 69.8246 32.3348C69.4183 31.9154 69.0561 31.7138 68.6697 31.6102ZM71.8483 33.2901L71.6922 33.8726C71.6663 33.9692 71.6407 34.0648 71.5182 34.1355C71.4923 34.2321 71.3696 34.3038 71.3437 34.4004C71.3178 34.497 71.1944 34.5674 71.1685 34.664L71.0458 34.7357C71.0458 34.7357 71.0199 34.8323 70.9233 34.8064C70.8008 34.8771 70.7759 34.974 70.6784 34.9478L70.4331 35.0902L70.1882 35.2316C69.9432 35.3731 69.6257 35.3915 69.3807 35.5329C69.2582 35.6036 69.1616 35.5777 69.1358 35.6743L68.8906 35.8167L68.6456 35.9581L68.4004 36.1005C68.2779 36.1712 68.2501 36.2673 68.1535 36.2414C68.1276 36.338 68.0052 36.4087 67.979 36.5063C67.9529 36.6039 67.8307 36.6736 67.8048 36.7702C67.7789 36.8668 67.6564 36.9375 67.6305 37.0341L67.3712 38.0019C67.3453 38.0985 67.3194 38.1951 67.3902 38.3176C67.3643 38.4142 67.435 38.5367 67.4091 38.6333C67.3832 38.7299 67.4798 38.7557 67.4539 38.8523L65.1977 37.2115C64.8372 37.0114 64.3802 36.7853 64.0197 36.5852C63.8524 36.4369 63.5607 36.3587 63.3927 36.2091C62.7424 35.9314 62.0902 35.6531 61.5355 35.4009L61.439 35.3751C60.7887 35.0973 60.2072 34.9415 59.5301 34.76C59.0471 34.6306 58.5632 34.501 58.0534 34.4679C57.3763 34.2865 56.6733 34.2016 56.0669 34.1427C55.8737 34.0909 55.7512 34.1616 55.5571 34.1096C55.2414 34.1285 54.8538 34.0257 54.5379 34.0456C54.3447 33.9939 54.2213 34.0643 54.0281 34.0126C53.809 34.0574 53.7127 34.0305 53.4926 34.0751C53.3702 34.1458 53.2733 34.1209 53.0533 34.1655L52.9567 34.1396C52.8342 34.2103 52.7376 34.1844 52.6142 34.2549L52.5176 34.229C52.3951 34.2997 52.2992 34.275 52.1758 34.3455C52.0792 34.3196 51.9567 34.3903 51.9567 34.3903C51.9567 34.3903 51.8601 34.3644 51.8343 34.461C51.7118 34.5317 51.6142 34.5056 51.4908 34.5761C51.3673 34.6465 51.2727 34.6211 51.1502 34.6918C51.0277 34.7626 50.9302 34.7364 50.9043 34.833C50.8077 34.8071 50.7813 34.9057 50.6588 34.9764C50.5622 34.9505 50.5363 35.0471 50.4398 35.0212L50.3422 34.9951C50.2456 34.9692 50.2197 35.0658 50.1231 35.0399L49.8784 35.1803L49.6332 35.3227C49.5884 35.1037 49.5884 35.1037 49.4659 35.1744C49.4659 35.1744 49.3693 35.1485 49.3435 35.2451L49.0975 35.3862L49.0717 35.4828L48.7042 35.695C48.459 35.8374 48.2119 35.9792 47.9928 36.0241C47.7479 36.1655 47.5288 36.2103 47.2839 36.3517C47.0379 36.4929 46.8196 36.5389 46.5027 36.5586C46.2836 36.6034 46.0629 36.6468 45.7472 36.6657C45.5282 36.7105 45.2125 36.7295 44.9932 36.7753C44.4834 36.7422 43.9464 36.8064 43.5601 36.7029L43.2703 36.6253C43.1737 36.5994 43.0771 36.5735 42.9546 36.6442C42.9288 36.7408 42.8322 36.7149 42.7356 36.689C42.639 36.6632 42.5155 36.7336 42.418 36.7075C42.2955 36.7782 42.1989 36.7523 42.1728 36.8499C42.0503 36.9206 41.9537 36.8947 41.9278 36.9913C41.8053 37.062 41.709 37.0351 41.6829 37.1327L41.436 37.2736C41.3135 37.3443 41.2876 37.4409 41.1652 37.5116C41.0427 37.5823 41.0178 37.6792 40.895 37.7509C40.8692 37.8474 40.7455 37.9189 40.7196 38.0155C40.6937 38.112 40.5712 38.1828 40.5453 38.2794C40.5195 38.3759 40.4936 38.4725 40.3711 38.5432L40.1638 39.317C40.1379 39.4135 40.1376 39.4145 40.2081 39.5379C40.1822 39.6345 40.2791 39.6595 40.2532 39.7561C40.2273 39.8526 40.3246 39.8798 40.2985 39.9773L40.4401 40.2213L40.5816 40.4662C40.8196 40.7371 40.7947 40.8339 41.1302 41.1309C41.2268 41.1568 41.1995 41.255 41.297 41.2812L41.2711 41.3778C41.2453 41.4744 41.2187 41.5697 41.2891 41.6932C41.2632 41.7898 41.3359 41.9128 41.31 42.0094C41.2841 42.1059 41.3807 42.1318 41.3548 42.2284L41.3284 42.3269C41.3025 42.4235 41.3733 42.546 41.3733 42.546C41.444 42.6685 41.4174 42.7639 41.514 42.7897L41.6561 43.0359L41.7975 43.2809L41.9396 43.527C42.0104 43.6495 42.1069 43.6754 42.1069 43.6754C42.2035 43.7013 42.2743 43.8237 42.3708 43.8496L42.7572 43.9532L42.3944 45.3074C42.6065 45.6748 43.2728 45.1276 43.9643 44.4826C43.6601 45.2314 43.427 46.1017 43.4715 46.3217C43.4905 46.6374 44.4008 45.9485 45.2404 45.1372C53.3504 45.4437 59.0123 52.5606 57.6685 60.2881C57.883 59.1012 56.612 58.0338 55.8831 58.0456C55.386 58.7416 54.5193 59.6503 53.4934 59.9976C53.7715 59.3464 53.8822 58.5468 53.967 57.8438C53.4858 58.7913 52.7692 59.5993 51.8858 60.1901C51.3754 60.1022 50.896 59.8849 50.4934 59.559C50.0908 59.2331 49.7785 58.8095 49.5863 58.3285L49.5156 58.206C49.5415 58.1094 49.4708 57.9869 49.4708 57.9869C49.4966 57.8903 49.425 57.7676 49.425 57.7676L49.529 57.3793C49.5549 57.2827 49.5817 57.1864 49.6783 57.2123C49.7042 57.1157 49.7298 57.0201 49.8264 57.0459C49.8523 56.9493 49.975 56.8777 49.975 56.8777C50.2976 56.4465 50.4271 55.9635 50.0927 55.6658C49.9961 55.6399 50.021 55.5431 49.9244 55.5172L49.7313 55.4654C49.6347 55.4396 49.5376 55.4115 49.5635 55.3149L48.5956 55.0556C48.499 55.0297 48.4019 55.0057 48.3761 55.1023C48.2795 55.0764 48.2545 55.1733 48.158 55.1474C48.0614 55.1215 48.0345 55.2179 47.9379 55.192C44.7432 55.8909 45.2547 60.1753 46.6135 61.6803C45.9115 61.5957 45.1826 61.6074 45.0592 61.6779C45.4654 62.0973 45.8976 62.4202 46.3298 62.7431C46.9539 63.1184 47.6778 63.5194 47.9414 63.6946C48.7609 64.1212 49.7007 64.4776 50.5978 64.6145C55.5119 65.6206 60.3674 62.9814 62.4382 58.3516C62.4124 58.4482 62.3865 58.5448 62.4572 58.6673C62.4054 58.8604 62.4503 59.0795 62.3985 59.2727L61.5946 62.2729C61.5687 62.3695 61.5428 62.466 61.4204 62.5368C61.3945 62.6333 61.3686 62.7299 61.2459 62.8016C61.22 62.8982 61.1941 62.9948 61.0716 63.0655C61.0457 63.1621 60.9213 63.2323 60.8955 63.3289C60.8696 63.4255 60.7466 63.4981 60.7207 63.5947C60.6948 63.6913 60.5726 63.7611 60.5465 63.8586C60.5203 63.9562 60.3981 64.0259 60.3722 64.1225C60.3463 64.2191 60.2248 64.2901 60.1989 64.3867C60.1731 64.4833 60.0487 64.5534 60.0228 64.65L59.9969 64.7466C58.9317 66.0173 57.53 66.9906 56.0133 67.6205C55.8909 67.6913 55.7943 67.6654 55.6718 67.7361C55.6718 67.7361 55.5742 67.7099 55.5484 67.8065C55.4259 67.8772 55.329 67.8523 55.3031 67.9489L55.2773 68.0455C55.4705 68.0973 55.567 68.1232 55.7871 68.0786C56.0769 68.1562 56.3937 68.1366 56.7104 68.1179C56.807 68.1438 56.9035 68.1697 56.9294 68.0731L57.3158 68.1766C57.4124 68.2025 57.4124 68.2025 57.5349 68.1318C58.677 68.1272 59.82 68.1229 60.9166 67.8981C58.5528 69.7535 55.7126 71.0651 52.7637 71.6229C54.0472 71.8632 55.3576 72.0073 56.6222 71.932C61.3126 71.8409 65.7918 69.8255 69.0542 66.5524C67.9077 68.921 66.2842 71.0273 64.2855 72.7389C65.5311 72.348 66.7056 71.8324 67.8359 71.099C70.9285 69.2318 73.3306 66.4528 74.8442 63.1262C74.7651 64.9719 74.3957 66.7396 73.736 68.429C84.0814 60.0025 79.9539 46.7652 77.7583 42.9623L77.6545 43.3497C77.5769 43.6395 77.4285 43.8068 77.3767 43.9999C77.2284 44.1672 77.1512 44.4592 77.0016 44.6272C76.8532 44.7945 76.679 45.0584 76.5307 45.2257C76.3823 45.393 76.2081 45.6569 76.0597 45.8242C75.9113 45.9915 75.6656 46.1359 75.5173 46.3032C75.3689 46.4705 75.123 46.6116 74.878 46.753C74.6331 46.8945 74.4847 47.0618 74.2388 47.2029L73.8699 47.4167C73.7474 47.4874 73.6508 47.4616 73.5284 47.5323C73.2834 47.6737 73.0624 47.718 72.8434 47.7628C72.6243 47.8077 72.3788 47.951 72.0632 47.97C71.8441 48.0148 71.5287 48.0328 71.3096 48.0776C71.0896 48.1222 70.7715 48.1425 70.5783 48.0908C70.3592 48.1356 70.0697 48.057 69.8506 48.1018C69.5609 48.0242 69.3399 48.0685 69.0501 47.9908L67.7934 47.6541C67.5036 47.5765 67.3344 47.4276 67.0446 47.3499C66.7549 47.2723 66.5876 47.1239 66.4203 46.9756C66.6134 47.0274 66.9035 47.104 67.1225 47.0592C67.4123 47.1368 67.6314 47.092 67.8505 47.0472C68.0695 47.0024 68.3612 47.0805 68.5803 47.0357C68.7994 46.9909 69.115 46.9719 69.3341 46.9271C69.5532 46.8823 69.7744 46.837 70.1169 46.7217C70.336 46.6769 70.5812 46.5345 70.8003 46.4897C71.0452 46.3482 71.2645 46.3024 71.5095 46.161L72.124 45.807C72.369 45.6656 72.5174 45.4983 72.7623 45.3569C72.7623 45.3569 72.7882 45.2603 72.8848 45.2862C73.0331 45.1189 73.1827 44.9509 73.3052 44.8801C73.4535 44.7128 73.6019 44.5455 73.7761 44.2816C73.9245 44.1143 74.0993 43.8485 74.2488 43.6805C74.3984 43.5125 74.4748 43.2234 74.6232 43.0561C74.7008 42.7663 74.8507 42.5974 74.9024 42.4042L75.2392 41.1475C75.3168 40.8577 75.2715 40.6365 75.3233 40.4433C75.4009 40.1535 75.3561 39.9344 75.3113 39.7154C75.2667 39.4953 75.2475 39.1806 75.2995 38.9865C75.2547 38.7674 75.2363 38.4498 75.1914 38.2308C75.1466 38.0117 75.1008 37.7924 74.9843 37.4506C74.9397 37.2305 74.7981 36.9866 74.7535 36.7665C74.6111 36.5213 74.5668 36.3003 74.4247 36.0541L74.2132 35.6879C73.8338 35.1722 73.4534 34.6561 72.9508 34.2098C72.8542 34.184 72.8796 34.0852 72.783 34.0593C72.4475 33.7623 72.2097 33.4905 71.8483 33.2901ZM159.518 67.1505C156.792 70.3604 152.583 70.5826 152.583 70.5826L152.376 71.3553C152.247 71.8383 152.635 71.9423 152.635 71.9423L154.57 72.4608C154.57 72.4608 152.381 79.8582 151.777 82.4969C151.174 85.1356 152.805 86.4009 152.805 86.4009C152.805 86.4009 153.879 87.4145 155.963 87.7659C158.047 88.1172 160.043 86.4739 160.043 86.4739L159.651 85.2278C155.977 86.9394 156.201 83.7859 156.201 83.7859L158.949 73.5297L163.012 74.6183L163.53 72.6845L159.66 71.6474L160.775 67.4872L159.518 67.1505ZM100.366 53.7897C98.2157 56.0128 93.9245 55.3827 93.9245 55.3827L93.6396 56.4462C96.1934 57.7527 95.5654 58.9334 95.5654 58.9334C95.5654 58.9334 93.9256 65.4396 93.3813 67.471C92.837 69.5023 92.2642 68.9358 92.2642 68.9358L90.3215 68.8293L90.0104 69.9904C92.1004 69.9292 98.8138 72.3493 98.8138 72.3493L99.2218 71.2131C97.2681 70.3791 97.4119 69.0697 97.4119 69.0697L99.9784 59.4915C102.257 58.3401 104.153 58.2269 104.153 58.2269C107.966 58.3148 107.324 61.8749 107.324 61.8749L105.061 70.7042C105.115 73.2075 101.835 71.9132 101.835 71.9132L101.62 73.1011L107.045 74.1406L110.52 75.4859L110.831 74.3239C109.167 73.5674 109.071 73.5416 109.337 72.1615C112.393 62.3005 111.854 61.2241 111.854 61.2241C109.393 52.9948 100.341 58.1392 100.341 58.1392L101.43 54.0746L100.366 53.7897ZM125.75 61.2124C118.01 59.1385 115.758 66.0024 115.758 66.0024C115.758 66.0024 111.576 76.1841 121.058 78.7246C127.153 80.3578 129.925 77.3665 129.925 77.3665L129.048 75.9916C129.048 75.9916 118.192 80.1328 120.375 67.3422L131.887 70.4268C131.817 70.3043 133.489 63.286 125.75 61.2124ZM143.183 66.2004C142.545 66.0334 141.831 65.8722 141.028 65.7224C141.028 65.7224 137.436 65.588 136 68.6258C134.563 71.6636 136.128 73.9494 136.128 73.9494C136.128 73.9494 136.662 75.4405 139.584 76.5339C142.118 77.5236 142.994 78.9001 142.994 78.9001C142.994 78.9001 144.012 80.5189 142.146 81.6783C140.28 82.8369 138.501 81.738 138.501 81.738C138.501 81.738 136.25 81.2383 134.856 75.9918L133.572 75.7512L132.836 80.4291C132.836 80.4291 138.096 85.5708 143.77 83.359C149.773 80.3014 146.799 75.148 144.316 73.9642C141.834 72.7804 140.273 71.6386 140.273 71.6386C140.273 71.6386 136.651 68.9048 140.879 67.4455C145.39 66.4769 146.157 72.9024 146.157 72.9024C146.157 72.9024 146.974 73.3295 147.685 73.0013C148.034 72.4735 148.29 68.808 148.29 68.808C148.29 68.808 147.645 67.3658 143.183 66.2004ZM125.555 62.7162C127.393 63.2087 128.527 65.171 128.035 67.0092L127.801 67.8805L120.642 65.9621L120.771 65.4791C121.316 63.4468 123.427 62.146 125.555 62.7162Z" fill="#DF234F"/>
</svg>
