<svg width="112" height="128" viewBox="0 0 112 128" fill="none" xmlns="http://www.w3.org/2000/svg">
<path d="M10.1923 115.204L0 0.000488281H112L101.798 115.187L55.9321 128L10.1923 115.204Z" fill="#1572B6"/>
<path d="M56.001 118.207L93.063 107.852L101.782 9.41943H56.001V118.207Z" fill="#33A9DC"/>
<path d="M56.001 51.1578H74.5548L75.8362 36.6892H56.001V22.5599H91.1601L90.8236 26.3509L87.3768 65.2872H56.001V51.1578Z" fill="white"/>
<path d="M56.0842 87.8527L56.0223 87.8711L40.4074 83.6224L39.4089 72.3534H25.3359L27.2995 94.5389L56.0203 102.572L56.0842 102.553V87.8527Z" fill="#EBEBEB"/>
<path d="M73.3627 64.6895L71.6737 83.6111L56.0355 87.8649V102.565L84.7796 94.5378L84.9905 92.1504L87.4296 64.6895H73.3627Z" fill="white"/>
<path d="M56.0486 22.5599V36.6892H22.181L21.9002 33.5142L21.2615 26.3509L20.926 22.5599H56.0486ZM56.001 51.1598V65.2892H40.5827L40.3019 62.1142L39.6622 54.9509L39.3277 51.1598H56.001Z" fill="#EBEBEB"/>
</svg>
