<svg width="94" height="128" viewBox="0 0 94 128" fill="none" xmlns="http://www.w3.org/2000/svg">
<path d="M0 103.317L0.777176 102.234L37.4417 32.6806L37.5194 31.9446L21.3587 1.58891C21.0628 1.03381 20.5999 0.58579 20.0354 0.308234C19.471 0.0306775 18.8335 -0.0623618 18.2132 0.0422786C17.593 0.146919 17.0213 0.443941 16.5791 0.891324C16.137 1.33871 15.8467 1.9138 15.7493 2.53524L0 103.317Z" fill="#FFC24A"/>
<path d="M0.457031 102.494L1.0422 101.351L37.3273 32.5206L21.2077 2.04609C20.9419 1.51611 20.5115 1.08653 19.981 0.821712C19.4505 0.556891 18.8485 0.471083 18.2652 0.577145C17.6818 0.683208 17.1485 0.97543 16.7452 1.41003C16.3419 1.84463 16.0903 2.39822 16.028 2.98785L0.457031 102.494Z" fill="#FFA712"/>
<path d="M49.3007 54.9033L61.3333 42.5599L49.2962 19.6057C49.0312 19.1117 48.6373 18.6987 48.1563 18.4109C47.6753 18.123 47.1252 17.971 46.5646 17.971C46.004 17.971 45.454 18.123 44.9729 18.4109C44.4919 18.6987 44.098 19.1117 43.833 19.6057L37.4008 31.8668V32.9137L49.3007 54.9033Z" fill="#F4BD62"/>
<path d="M49.0858 54.4005L60.7846 42.4228L49.0858 20.1132C48.8943 19.6303 48.5672 19.2131 48.144 18.9119C47.7207 18.6107 47.2194 18.4383 46.7004 18.4156C46.1814 18.3929 45.6669 18.5208 45.219 18.7839C44.771 19.047 44.4088 19.434 44.1758 19.8983L37.7115 32.3743L37.5195 33.0098L49.0858 54.4005Z" fill="#FFA50E"/>
<path d="M0.00915527 103.322L0.361172 102.965L1.63666 102.448L48.5417 55.7171L49.136 54.0987L37.4371 31.7983L0.00915527 103.322Z" fill="#F6820C"/>
<path d="M50.8 126.888L93.2614 103.212L81.1283 28.5525C81.0413 28.0262 80.811 27.534 80.4626 27.13C80.1143 26.726 79.6613 26.4258 79.1535 26.2624C78.6458 26.099 78.1027 26.0786 77.5841 26.2036C77.0655 26.3285 76.5914 26.5939 76.2138 26.9707L0 103.317L42.2099 126.884C43.5222 127.616 44.9999 128.001 46.5027 128.001C48.0054 128.001 49.4832 127.616 50.7955 126.884" fill="#FDE068"/>
<path d="M92.8727 103.015L80.8401 28.9182C80.8189 28.4148 80.6488 27.929 80.3513 27.5223C80.0539 27.1156 79.6425 26.8063 79.1692 26.6335C78.6959 26.4607 78.182 26.4323 77.6925 26.5517C77.203 26.6711 76.7599 26.933 76.4194 27.3044L0.457031 103.175L42.2007 126.491C43.5025 127.217 44.9684 127.598 46.4591 127.598C47.9498 127.598 49.4158 127.217 50.7176 126.491L92.8727 103.015Z" fill="#FCCA3F"/>
<path d="M50.8 126.175C49.4878 126.907 48.01 127.292 46.5073 127.292C45.0045 127.292 43.5268 126.907 42.2145 126.175L0.347443 102.96L0 103.317L42.2099 126.884C43.5222 127.616 44.9999 128 46.5027 128C48.0054 128 49.4832 127.616 50.7955 126.884L93.2614 103.212L93.1562 102.572L50.8 126.175Z" fill="#EEAB37"/>
</svg>
