<svg width="112" height="128" viewBox="0 0 112 128" fill="none" xmlns="http://www.w3.org/2000/svg">
<path d="M10.1928 115.205L0 0.000488281H112L101.796 115.188L55.9317 128L10.1928 115.205Z" fill="#E44D26"/>
<path d="M56 118.207L93.061 107.853L101.781 9.41992H56V118.207Z" fill="#F16529"/>
<path d="M56 52.1479H37.4461L36.1645 37.6784H56V23.5497H20.8411L21.1773 27.3401L24.6228 66.2776H56V52.1479ZM56 88.8433L55.9379 88.8607L40.3231 84.6104L39.3257 73.343H25.2493L27.2135 95.5277L55.9358 103.562L56 103.545V88.8433Z" fill="#EBEBEB"/>
<path d="M55.9511 52.1479V66.2776H73.2163L71.5893 84.6022L55.9511 88.8556V103.556L84.6958 95.5277L84.9067 93.1408L88.2014 55.9424L88.5427 52.1479H84.7651H55.9511ZM55.9511 23.5497V37.6784H89.8192L90.1004 34.504L90.7402 27.3401L91.0754 23.5497H55.9511Z" fill="white"/>
</svg>
