<svg width="125" height="128" viewBox="0 0 125 128" fill="none" xmlns="http://www.w3.org/2000/svg">
<path d="M25.6706 0.110956C25.4713 0.188956 19.8724 3.39096 13.2305 7.22296C5.18282 11.867 1.04939 14.313 0.828228 14.543C0.638942 14.768 0.489505 15.025 0.391873 15.303C0.2255 15.867 0.213545 98.288 0.381911 98.881C0.442681 99.111 0.640934 99.449 0.820258 99.635C1.25462 100.095 49.3015 127.825 49.8853 127.959C50.1563 128.024 50.4602 128.013 50.762 127.929C51.4175 127.764 99.3389 100.095 99.7653 99.643C99.9397 99.448 100.139 99.111 100.204 98.882C100.287 98.609 100.318 94.302 100.318 85.227V71.967L112 65.232C123.015 58.875 123.689 58.477 123.972 58.041L124.261 57.571V43.288C124.261 27.74 124.291 28.615 123.678 28.053C123.514 27.907 117.902 24.62 111.195 20.743L99.0132 13.711H97.6593L85.7412 20.581C79.1799 24.369 73.6029 27.608 73.331 27.784C73.06 27.964 72.7362 28.296 72.6037 28.537L72.3626 28.954L72.3088 42.409L72.261 55.869L62.4191 61.559C57.0055 64.683 52.4995 67.269 52.4038 67.293C52.2295 67.342 52.2175 66.061 52.2175 41.327V15.294L51.9585 14.847C51.6337 14.302 53.0902 15.171 38.4654 6.73296C26.2006 -0.347044 26.4955 -0.199044 25.6706 0.110956ZM36.9451 10.418C42.0758 13.373 46.2739 15.818 46.2739 15.848C46.2739 15.879 41.7749 18.489 36.2766 21.661L26.2733 27.426L16.288 21.662C10.8016 18.489 6.30558 15.879 6.30558 15.848C6.30558 15.818 10.7937 13.208 16.281 10.043L26.2424 4.29096L26.9298 4.66696C30.2742 6.57396 33.6127 8.49096 36.9451 10.418ZM108.344 23.679C113.746 26.801 118.215 29.381 118.257 29.423C118.37 29.526 98.5569 40.958 98.2859 40.946C98.0149 40.938 78.4457 29.611 78.4536 29.473C78.4636 29.316 98.1524 17.946 98.3516 17.977C98.4423 17.999 102.941 20.567 108.344 23.679ZM14.7408 25.329L24.2629 30.832L24.3177 58.079L24.3675 85.331L24.5996 85.699C24.7212 85.893 24.9503 86.158 25.1177 86.28C25.2751 86.395 30.5741 89.426 36.8913 93.004L48.368 99.51V111.037C48.368 117.363 48.3252 122.553 48.2714 122.553C48.2306 122.553 38.309 116.854 26.2305 109.877L4.27324 97.202L4.24336 58.236L4.22443 19.282L4.71259 19.553C4.99453 19.703 9.50154 22.301 14.7398 25.328L14.7408 25.329ZM48.368 44.509V69.618L47.9825 69.871C47.4595 70.203 28.3893 81.206 28.3246 81.206C28.2947 81.206 28.2708 69.87 28.2708 56.013L28.2827 30.831L38.2452 25.079C43.7235 21.914 48.2415 19.346 48.2953 19.365C48.3342 19.389 48.368 30.705 48.368 44.509ZM86.3748 38.734L96.3602 44.497V55.921C96.3602 66.759 96.3492 67.341 96.1848 67.278C96.0782 67.237 91.5602 64.638 86.1397 61.504L76.2669 55.814V44.394C76.2669 38.107 76.2988 32.97 76.3287 32.97C76.3715 32.97 80.8885 35.562 86.3748 38.734ZM120.411 44.321C120.411 50.575 120.369 55.733 120.327 55.783C120.255 55.898 100.506 67.321 100.38 67.321C100.349 67.321 100.318 62.186 100.318 55.898V44.478L110.281 38.722C115.767 35.562 120.285 32.97 120.327 32.97C120.38 32.97 120.411 38.075 120.411 44.321ZM94.1345 70.934L50.3117 96.041L30.4376 84.694C30.4376 84.694 74.2166 59.278 74.392 59.344L94.1345 70.934ZM96.3412 85.761L96.3074 97.203L74.3621 109.879C62.2876 116.855 52.363 122.554 52.3132 122.554C52.2604 122.554 52.2185 117.896 52.2185 111.038V99.511L74.2156 86.919C86.3021 79.996 96.2336 74.329 96.2864 74.317C96.3293 74.317 96.3482 79.465 96.3402 85.76L96.3412 85.761Z" fill="#F0513F"/>
</svg>
