<svg width="58" height="128" viewBox="0 0 58 128" fill="none" xmlns="http://www.w3.org/2000/svg">
<path fill-rule="evenodd" clip-rule="evenodd" d="M54.4339 41.766C56.1322 46.6383 57.3553 51.6124 57.7574 56.7681C58.2568 63.1642 58.0282 69.5151 56.6686 75.8062C56.6316 75.9794 56.5533 76.1421 56.4951 76.31C56.0687 76.311 55.6338 76.2585 55.2169 76.3225C51.6946 76.8714 48.1754 77.4402 44.6562 78.0058C41.0185 78.5903 37.3756 79.1517 33.7443 79.7761C32.4576 79.9965 30.8652 79.7331 30.3457 81.4982C30.3309 81.5464 30.1828 81.5548 30.0971 81.5821L30.2727 71.0346L30.0939 45.5847L31.7889 45.2961C34.5611 44.8459 37.3333 44.3894 40.1075 43.9519C43.4183 43.4303 46.7322 42.9234 50.045 42.4145C51.5062 42.1889 52.9696 41.9821 54.4339 41.766Z" fill="#439934"/>
<path fill-rule="evenodd" clip-rule="evenodd" d="M26.5969 112.329C24.8088 110.805 22.9582 109.347 21.2441 107.744C12.0208 99.1154 5.2745 88.9604 1.95213 76.7171C1.03689 73.3475 0.42638 69.9233 0.230635 66.4414C0.0930851 64.0047 -0.105837 61.546 0.0676878 59.1219C0.530069 52.6744 1.46965 46.2888 3.37631 40.0785L3.48105 39.9337C3.66622 40.1782 3.93285 40.3944 4.02702 40.6704C5.88818 46.1063 7.73559 51.5463 9.57348 56.9895C15.3485 74.0947 21.1161 91.204 26.9006 108.305C27.0138 108.639 27.3069 108.913 27.5174 109.214L26.5969 112.329Z" fill="#45A538"/>
<path fill-rule="evenodd" clip-rule="evenodd" d="M54.4339 41.7659C52.9696 41.9821 51.5052 42.1888 50.044 42.4123C46.7311 42.9213 43.4172 43.4282 40.1065 43.9497C37.3322 44.3873 34.56 44.8438 31.7879 45.294L30.0928 45.5826L30.0801 44.486C30.0241 43.5845 29.9278 42.6841 29.9172 41.7827C29.8442 36.0341 29.7987 30.2855 29.7267 24.5369C29.6823 20.9386 29.6156 17.3412 29.5416 13.7439C29.4961 11.5087 29.4474 9.27245 29.3458 7.04038C29.2908 5.84093 29.0961 4.64776 29.0168 3.4483C28.9723 2.75885 29.0337 2.06415 29.0474 1.37155C29.9119 3.03274 30.7573 4.70653 31.6461 6.35513C33.0502 8.96183 35.2869 10.8822 37.3005 12.9779C45.2604 21.2597 50.9116 30.8889 54.4339 41.7659Z" fill="#46A037"/>
<path fill-rule="evenodd" clip-rule="evenodd" d="M30.096 81.581C30.1817 81.5537 30.3309 81.5453 30.3446 81.4971C30.8641 79.732 32.4565 79.9954 33.7432 79.775C37.3745 79.1517 41.0175 78.5892 44.6551 78.0047C48.1743 77.4391 51.6935 76.8703 55.2158 76.3215C55.6327 76.2564 56.0676 76.3099 56.494 76.3089C55.8359 78.6385 55.3174 81.0186 54.4826 83.2842C53.5346 85.8542 52.3876 88.3622 51.1697 90.821C49.3465 94.4883 47.09 97.9275 44.4478 101.066C42.4173 103.488 40.1541 105.727 37.8856 107.938C36.6317 109.16 35.1536 110.156 33.7781 111.255L33.4215 111.013L32.137 109.924L30.8081 107.035C29.9003 103.665 29.4051 100.199 29.3331 96.7112L29.3574 96.1225L29.5384 93.5767C29.5987 92.7078 29.6791 91.8399 29.7161 90.9689C29.8526 87.8396 29.9711 84.7103 30.096 81.581Z" fill="#409433"/>
<path fill-rule="evenodd" clip-rule="evenodd" d="M30.096 81.581C29.9711 84.7103 29.8526 87.8396 29.7182 90.97C29.6812 91.841 29.6008 92.7088 29.5405 93.5777L28.731 93.881C26.9334 88.6319 25.1346 83.4385 23.375 78.2314C20.4653 69.6169 17.5905 60.9888 14.685 52.3722C12.3383 45.4173 9.97526 38.4678 7.59589 31.5238C7.48479 31.1985 7.16525 30.9446 6.94305 30.657L12.1234 21.2104C12.3012 21.5168 12.5361 21.8033 12.6482 22.1328C15.0475 29.166 17.4345 36.2032 19.8093 43.2445C22.8947 52.4058 25.961 61.5743 29.0442 70.7366C29.167 71.1028 29.3701 71.4407 29.5637 71.8511L30.2727 71.0325L30.096 81.581Z" fill="#4FAA41"/>
<path fill-rule="evenodd" clip-rule="evenodd" d="M6.94415 30.6581C7.16635 30.9456 7.48483 31.1996 7.59699 31.5249C9.97636 38.4689 12.3394 45.4183 14.6861 52.3732C17.5916 60.9898 20.4664 69.6179 23.3761 78.2324C25.1347 83.4385 26.9334 88.633 28.7321 93.882L29.5416 93.5788L29.3606 96.1246L29.1966 96.7112C28.9152 99.4984 28.6782 102.292 28.3354 105.073C28.1629 106.466 27.7968 107.835 27.5185 109.215C27.309 108.914 27.0149 108.64 26.9016 108.306C21.1171 91.204 15.3495 74.0957 9.57454 56.9906C7.7373 51.547 5.88847 46.1072 4.02808 40.6714C3.93392 40.3954 3.66834 40.1792 3.48212 39.9347L6.94415 30.6581Z" fill="#4AA73C"/>
<path fill-rule="evenodd" clip-rule="evenodd" d="M30.2716 71.0336L29.5627 71.8521C29.3691 71.4418 29.1659 71.1028 29.0432 70.7376C25.961 61.5754 22.8936 52.4068 19.8083 43.2456C17.4334 36.2043 15.0464 29.167 12.6472 22.1338C12.5361 21.8043 12.3012 21.5168 12.1224 21.2114L18.529 12.853C18.7311 13.1206 19.0189 13.3588 19.1237 13.66C20.9023 18.8241 22.6651 23.9944 24.4173 29.1679C26.0541 33.9994 27.6666 38.8381 29.3225 43.6632C29.4336 43.9865 29.8198 44.2152 30.078 44.4881L30.0907 45.5847C30.1521 54.0659 30.2124 62.5503 30.2716 71.0336Z" fill="#57AE47"/>
<path fill-rule="evenodd" clip-rule="evenodd" d="M30.0801 44.486C29.822 44.2131 29.4358 43.9843 29.3247 43.6611C27.6688 38.836 26.0563 33.9973 24.4194 29.1658C22.6672 23.9923 20.9045 18.823 19.1258 13.6579C19.0211 13.3567 18.7333 13.1185 18.5312 12.8509C20.6145 10.8277 22.6334 8.73202 24.8003 6.80218C26.7271 5.08747 28.2761 3.24893 28.347 0.539389C28.3502 0.427104 28.4094 0.314819 28.5004 0L29.0496 1.37051C29.0358 2.06416 28.9734 2.75781 29.0189 3.44726C29.0982 4.64672 29.2929 5.83988 29.3479 7.03934C29.4495 9.27141 29.4982 11.5077 29.5437 13.7429C29.6167 17.3402 29.6834 20.9375 29.7288 24.5359C29.7997 30.2845 29.8463 36.0331 29.9193 41.7817C29.9278 42.6852 30.023 43.5845 30.0801 44.486Z" fill="#60B24F"/>
<path fill-rule="evenodd" clip-rule="evenodd" d="M27.5164 109.214C27.7947 107.834 28.1608 106.464 28.3333 105.072C28.6771 102.292 28.9131 99.4974 29.1945 96.7102L29.2644 96.6997L29.3342 96.7112C29.4062 100.199 29.9014 103.665 30.8092 107.035C30.6229 107.279 30.3595 107.496 30.2611 107.771C29.4919 109.922 28.7671 112.09 27.9936 114.241C27.8878 114.535 27.5937 114.764 27.3863 115.022L26.5959 112.329L27.5164 109.214Z" fill="#A9AA88"/>
<path fill-rule="evenodd" clip-rule="evenodd" d="M27.3873 115.023C27.5947 114.765 27.8899 114.536 27.9946 114.242C28.7681 112.091 29.4939 109.924 30.2621 107.772C30.3605 107.497 30.6229 107.28 30.8102 107.036L32.1381 109.926C31.8757 110.296 31.5138 110.628 31.3678 111.04L28.8242 118.447C28.7194 118.744 28.3618 118.954 28.1227 119.205L27.3873 115.023Z" fill="#B6B598"/>
<path fill-rule="evenodd" clip-rule="evenodd" d="M28.1227 119.204C28.3629 118.954 28.7194 118.743 28.8242 118.446L31.3678 111.039C31.5128 110.628 31.8757 110.295 32.1381 109.925L33.4237 111.013C32.8026 111.622 32.4576 112.325 32.665 113.214L32.2746 114.482C32.0968 114.699 31.8397 114.888 31.7519 115.136C30.8642 117.658 30.0166 120.194 29.1226 122.715C29.0093 123.035 28.6951 123.286 28.4729 123.567C28.3576 122.112 28.2401 120.659 28.1227 119.204Z" fill="#C2C1A7"/>
<path fill-rule="evenodd" clip-rule="evenodd" d="M28.474 123.567C28.6951 123.285 29.0093 123.034 29.1236 122.715C30.0177 120.195 30.8652 117.659 31.7529 115.137C31.8408 114.889 32.0968 114.699 32.2756 114.482L31.7371 120.301C31.5932 120.465 31.3847 120.609 31.316 120.801C30.7076 122.495 30.1341 124.201 29.5236 125.895C29.3977 126.244 29.1564 126.553 28.9681 126.879C28.8009 126.662 28.5015 126.452 28.4877 126.225C28.4337 125.343 28.4708 124.454 28.474 123.567Z" fill="#CECDB7"/>
<path fill-rule="evenodd" clip-rule="evenodd" d="M28.967 126.879C29.1553 126.552 29.3966 126.243 29.5225 125.895C30.1341 124.202 30.7065 122.496 31.3149 120.801C31.3837 120.609 31.5932 120.466 31.736 120.301L31.7487 124.12L30.46 127.399L28.967 126.879Z" fill="#DBDAC7"/>
<path fill-rule="evenodd" clip-rule="evenodd" d="M30.46 127.4L31.7487 124.121L32.0143 128L30.46 127.4Z" fill="#EBE9DC"/>
<path fill-rule="evenodd" clip-rule="evenodd" d="M32.665 113.215C32.4576 112.326 32.8015 111.622 33.4236 111.014L33.7802 111.256L32.665 113.215Z" fill="#CECDB7"/>
<path fill-rule="evenodd" clip-rule="evenodd" d="M29.3342 96.7123L29.2644 96.7007L29.1945 96.7112L29.3585 96.1246L29.3342 96.7123Z" fill="#4FAA41"/>
</svg>
