<svg width="129" height="66" viewBox="0 0 129 66" fill="none" xmlns="http://www.w3.org/2000/svg">
<path d="M0.262263 60.1168H4.50281V43.4907L11.068 57.9851C11.8422 59.7397 12.9024 60.3597 14.9824 60.3597C17.0624 60.3597 18.0823 59.7397 18.8565 57.9851L25.4217 43.4907V60.1168H29.6622V43.5184C29.6622 41.8991 29.0098 41.1151 27.6638 40.7113C24.4421 39.7131 22.2805 40.5771 21.3019 42.7364L14.8595 57.0413L8.62155 42.7354C7.68322 40.5771 5.4814 39.7131 2.2597 40.7103C0.913623 41.1151 0.26123 41.8981 0.26123 43.5174L0.262263 60.1168ZM33.1895 46.5827H37.429V55.7428C37.3898 56.2398 37.59 57.4082 39.9126 57.4451C41.0977 57.4635 49.0606 57.4451 49.1349 57.4451V46.5376H53.3847C53.4044 46.5376 53.3806 61.4122 53.3806 61.4737C53.4033 65.1427 48.7963 65.939 46.6719 66.0005H33.2814V63.1678C33.3041 63.1678 46.6626 63.1709 46.6957 63.1668C49.426 62.8808 49.1029 61.5342 49.1019 61.0812V59.9764H40.0892C35.8961 59.9385 33.2246 58.1215 33.1905 56.0308C33.1885 55.8391 33.2824 46.6749 33.1895 46.5827Z" fill="#00618A"/>
<path d="M56.6538 60.1168H68.8469C70.2746 60.1168 71.6619 59.8207 72.7623 59.3082C74.5967 58.472 75.4937 57.3385 75.4937 55.8524V52.7759C75.4937 51.5614 74.4749 50.4269 72.4764 49.6726C71.4162 49.2668 70.1104 49.0526 68.8459 49.0526H63.7073C61.9948 49.0526 61.1793 48.5402 60.9759 47.4067C60.9356 47.2714 60.9356 47.1638 60.9356 47.0285V45.112C60.9356 45.0044 60.9356 44.8958 60.9759 44.7615C61.1793 43.8976 61.6283 43.6547 63.1375 43.5194L63.5452 43.4928H75.6568V40.6867H63.7496C62.0371 40.6867 61.14 40.7944 60.3245 41.0372C57.7965 41.8202 56.6941 43.0613 56.6941 45.2207V47.6762C56.6941 49.566 58.8567 51.1853 62.4851 51.5635C62.8939 51.5891 63.3006 51.6178 63.7083 51.6178H68.113C68.2761 51.6178 68.4392 51.6178 68.562 51.6434C69.9081 51.751 70.4779 51.9949 70.8867 52.4797C70.9914 52.5757 71.0746 52.6927 71.1306 52.8228C71.1866 52.953 71.2143 53.0934 71.2119 53.235V55.6915C71.2119 55.9877 71.0085 56.3659 70.6008 56.6897C70.2343 57.0136 69.6222 57.2298 68.8067 57.2842L68.3576 57.3108H56.6538V60.1168ZM101.951 55.2324C101.951 58.1194 104.112 59.7387 108.475 60.0635C108.882 60.0902 109.29 60.1168 109.698 60.1168H120.749V57.3108H109.617C107.13 57.3108 106.192 56.6898 106.192 55.2047V40.6847H101.952L101.951 55.2324ZM78.2003 55.3779V45.3703C78.2003 42.8287 79.9985 41.2863 83.5536 40.7995C83.9325 40.7455 84.3147 40.7185 84.6974 40.7185H92.748C93.1568 40.7185 93.5243 40.7452 93.932 40.7995C97.4872 41.2863 99.2864 42.8276 99.2864 45.3703V55.3779C99.2864 57.442 98.5225 58.5447 96.7625 59.2642L100.941 63.0079H96.0162L92.6365 59.9785L89.2342 60.1927H84.6974C83.8546 60.1873 83.0164 60.0691 82.2055 59.8412C79.5082 59.1115 78.2003 57.7043 78.2003 55.3779ZM82.7774 55.1351C82.7774 55.2703 82.8176 55.4066 82.8589 55.5686C83.1036 56.7318 84.2081 57.3805 85.8824 57.3805H89.7348L86.1962 54.2086H91.1212L94.2066 56.9757C94.7764 56.6733 95.1501 56.2142 95.2812 55.6229C95.3215 55.4876 95.3215 55.3523 95.3215 55.217V45.6163C95.3215 45.5087 95.3215 45.3724 95.2812 45.2371C95.0355 44.1548 93.932 43.5338 92.298 43.5338H85.8814C84.0027 43.5338 82.7763 44.3454 82.7763 45.6163L82.7774 55.1351Z" fill="#E48E00"/>
<path d="M124.48 36.0268C121.873 35.956 119.882 36.1969 118.179 36.9092C117.695 37.1121 116.924 37.1172 116.845 37.7188C117.111 37.9965 117.152 38.4095 117.363 38.7498C117.77 39.4026 118.457 40.2778 119.069 40.7359C119.737 41.2371 120.426 41.7741 121.145 42.2086C122.42 42.9814 123.844 43.4221 125.073 44.1948C125.797 44.6519 126.516 45.2258 127.223 45.7413C127.573 45.9944 127.806 46.3911 128.261 46.5499V46.4771C128.023 46.1758 127.961 45.7618 127.742 45.4461L126.778 44.4889C125.835 43.2468 124.64 42.1574 123.367 41.2514C122.353 40.5289 120.085 39.5522 119.661 38.3808L119.587 38.3081C120.305 38.2271 121.148 37.9689 121.811 37.7926C122.925 37.4954 123.921 37.5722 125.072 37.2771L126.629 36.8343V36.5412C126.048 35.9489 125.632 35.1638 124.998 34.6278C123.339 33.2248 121.527 31.8228 119.661 30.6525C118.627 30.0048 117.348 29.5835 116.251 29.0342C115.883 28.8487 115.235 28.7534 114.99 28.4449C114.413 27.7163 114.101 26.7929 113.656 25.9433C112.705 24.1079 111.815 22.2424 110.987 20.3497C110.426 19.0737 110.058 17.8152 109.357 16.6704C105.991 11.1762 102.368 7.85982 96.7553 4.6008C95.561 3.90698 94.1231 3.63437 92.6046 3.2767L90.1581 3.12913C89.6616 2.92313 89.1434 2.31847 88.6758 2.02536C86.8156 0.859086 82.0466 -1.67742 80.6695 1.65847C79.8004 3.76351 81.9702 5.8173 82.7454 6.88417C83.2894 7.63231 83.9872 8.47063 84.3764 9.31203C84.6324 9.86545 84.6758 10.4199 84.8956 11.0051C85.4334 12.446 85.9031 14.0151 86.5999 15.3463C86.9519 16.0207 87.3411 16.7309 87.786 17.3335C88.0585 17.7025 88.5271 17.8664 88.6004 18.4373C88.1431 19.0727 88.1163 20.0606 87.8593 20.8652C86.7011 24.4921 87.1377 29.0004 88.8234 31.6845C89.3406 32.5095 90.5586 34.2763 92.233 33.5979C93.6978 33.0055 93.3716 31.17 93.7907 29.5497C93.8856 29.1838 93.8268 28.9133 94.0126 28.6673V28.7411L95.3473 31.3903C96.3352 32.9696 98.087 34.6186 99.5724 35.7326C100.342 36.3096 100.949 37.3088 101.945 37.646V37.5712H101.871C101.677 37.273 101.377 37.15 101.129 36.9092C100.549 36.3445 99.9038 35.6435 99.4248 34.9958C98.0735 33.1756 96.8802 31.1823 95.7922 29.108C95.273 28.118 94.8219 27.0255 94.3842 26.0171C94.2149 25.6286 94.217 25.0404 93.866 24.8405C93.385 25.5784 92.6799 26.1759 92.3083 27.0481C91.7158 28.4419 91.6394 30.1421 91.4195 31.9048L91.2709 31.9776C90.2376 31.7306 89.8753 30.675 89.4913 29.7701C88.521 27.4816 88.3403 23.7952 89.195 21.1603C89.4159 20.4778 90.4141 18.3307 90.0095 17.7004C89.8164 17.0722 89.1795 16.7094 88.8244 16.2277C88.3585 15.5832 87.9611 14.8925 87.6384 14.1667C86.8435 12.3825 86.4729 10.3789 85.6378 8.57414C85.2373 7.71122 84.5622 6.83907 84.0068 6.07249C83.3926 5.22186 82.7041 4.59671 82.2272 3.56981C82.0579 3.20496 81.8277 2.61977 82.0786 2.24468C82.1581 1.99154 82.2726 1.88598 82.5245 1.80297C82.9539 1.47399 84.1514 1.91263 84.5994 2.0971C85.7885 2.58801 86.7805 3.05431 87.788 3.71636C88.2711 4.03509 88.7594 4.65 89.3447 4.82012H90.0115C91.0552 5.05789 92.2247 4.89289 93.1992 5.18702C94.9231 5.70764 96.4673 6.51625 97.8692 7.39557C102.142 10.0745 105.634 13.887 108.025 18.4352C108.409 19.168 108.576 19.8659 108.913 20.6428C109.597 22.2087 110.458 23.8208 111.137 25.353C111.815 26.881 112.477 28.4234 113.436 29.6952C113.939 30.3634 115.886 30.7221 116.771 31.0931C117.391 31.3535 118.407 31.625 118.994 31.9755C120.117 32.6478 121.205 33.4482 122.256 34.1841C122.782 34.5551 124.399 35.3616 124.48 36.0268ZM91.3452 7.98793C90.8958 7.98062 90.4473 8.03021 90.0105 8.13551V8.20827H90.0848C90.3439 8.73812 90.8012 9.07837 91.1223 9.5334L91.8645 11.0789L91.9377 11.0061C92.3971 10.6853 92.6067 10.1719 92.6046 9.38685C92.4198 9.19418 92.393 8.95334 92.234 8.7248C92.0234 8.41734 91.6126 8.24517 91.3452 7.98793Z" fill="#00618A"/>
</svg>
