<svg width="128" height="128" viewBox="0 0 128 128" fill="none" xmlns="http://www.w3.org/2000/svg">
<path d="M75.3229 0.00100631C74.4249 0.00100631 73.5269 0.201258 72.7289 0.502138C74.4249 1.60704 75.3229 3.11245 75.8219 4.81912C75.8219 5.02038 75.9219 5.22164 75.9219 5.42189C75.9219 5.62314 76.0219 5.8234 76.0219 6.02365C76.1219 8.93585 75.2229 9.33736 74.6249 11.044C73.6269 13.2518 73.9269 15.6619 75.1239 17.5688C75.2239 17.7701 75.3239 18.0719 75.5229 18.2722C74.2259 9.8395 81.2089 8.63396 82.5059 6.02365C82.6059 3.71522 80.7109 2.20981 79.2139 1.10491C77.7179 0.201258 76.5199 0 75.3239 0L75.3229 0.00100631ZM85.7999 1.80629C85.6999 2.60931 85.7999 2.40906 85.6999 2.81057C85.6999 3.11145 85.6999 3.41233 85.5999 3.71421C85.4999 4.01509 85.4999 4.21635 85.3999 4.51723C85.2999 4.81811 85.2009 5.01937 85.1009 5.32025C85.0009 5.52151 84.9009 5.72176 84.8009 6.02264C84.7019 6.12327 84.6019 6.32453 84.5029 6.42516C84.4029 6.52579 84.4029 6.62541 84.3029 6.72604C84.1029 6.9273 84.0029 7.22717 83.8039 7.42843L83.2059 8.0312C83.0059 8.23245 82.8059 8.4327 82.6069 8.53233C81.9089 9.03547 81.1109 9.43597 80.4119 9.93811C80.2119 10.1394 79.9129 10.24 79.7139 10.4403C79.5139 10.6415 79.3139 10.7421 79.1149 10.9424L78.5169 11.5442C78.3169 11.7454 78.1169 11.9467 78.0169 12.2475C77.8179 12.4488 77.7179 12.7497 77.5189 12.9499C77.4189 13.2518 77.3189 13.4521 77.1199 13.753C77.0199 14.0548 76.9199 14.2561 76.8199 14.556C76.7199 14.8579 76.6209 15.1587 76.6209 15.359C76.6209 15.4596 76.6209 15.6609 76.5209 15.7615C76.5209 15.8621 76.5209 16.0624 76.4209 16.163V17.5678C76.4209 17.8697 76.4209 18.0709 76.5209 18.3708C76.5209 18.6727 76.6209 18.874 76.7209 19.1748C76.8209 19.4757 76.9209 19.676 77.0209 19.9779C77.1199 20.1791 77.2199 20.2787 77.2199 20.48L69.6369 17.5678C68.3863 17.1865 67.1221 16.8518 65.8469 16.5645C65.1479 16.3633 64.4499 16.2626 63.7509 16.0614C61.7714 15.6626 59.7737 15.3614 57.7649 15.1587H57.5649C55.5699 14.9575 53.6749 14.8569 51.6799 14.8569C50.1829 14.8569 48.7859 14.9575 47.3899 15.0581C45.394 15.1587 43.4 15.4606 41.404 15.7615L39.907 16.0624C38.91 16.2636 37.912 16.4639 36.914 16.7648C36.415 16.8654 35.917 17.0667 35.418 17.1673C34.919 17.3675 34.42 17.5678 34.021 17.7691C33.622 17.9703 33.323 18.0709 32.924 18.2712C32.824 18.2712 32.824 18.2712 32.724 18.3718C32.424 18.5721 32.126 18.6727 31.826 18.873C31.726 18.873 31.626 18.9736 31.626 18.9736C31.228 19.1748 30.928 19.3761 30.629 19.4757C30.429 19.5764 30.13 19.677 29.931 19.7776C29.831 19.8772 29.731 19.8772 29.631 19.9779C29.332 20.1791 29.033 20.2787 28.733 20.479C28.434 20.6803 28.135 20.7809 27.935 20.9821C27.735 21.1824 27.436 21.283 27.237 21.4833C27.237 21.4833 27.137 21.4833 27.137 21.5839C26.937 21.6845 26.738 21.8858 26.539 22.086L26.439 22.1867C26.239 22.2873 26.139 22.4875 25.94 22.5882C25.84 22.5882 25.84 22.6888 25.74 22.6888C25.541 22.7894 25.441 22.9897 25.242 23.0893C25.242 23.1899 25.142 23.1899 25.142 23.1899L24.543 23.7927L24.443 23.8933L23.845 24.4951C23.845 24.4951 23.845 24.5957 23.745 24.5957L23.246 25.0979C23.146 25.1985 23.046 25.1985 23.046 25.2991L22.448 25.9009C22.448 26.0015 22.348 26.0015 22.348 26.1021L21.55 26.9042L21.45 27.0048C20.952 27.6075 20.353 28.1097 19.755 28.6118C19.157 29.114 18.557 29.6151 17.859 30.1172C17.161 30.6194 16.562 31.0209 15.864 31.4224C15.166 31.8239 14.467 32.1248 13.769 32.4267C13.07 32.7276 12.372 33.0284 11.674 33.2297C10.277 33.5316 8.87999 34.1333 7.68299 34.233C7.68299 33.7318 7.38299 33.8315 7.08399 33.8315C6.78499 33.9321 6.48599 33.9321 6.28599 34.0327C5.98599 34.1333 5.78699 34.234 5.48799 34.3346C5.20365 34.4273 4.93468 34.5623 4.69 34.7351C4.49 34.9364 4.191 35.037 3.992 35.2382C3.792 35.4385 3.492 35.6387 3.293 35.84C3.093 36.0413 2.794 36.2415 2.595 36.4418C2.395 36.643 2.195 36.8443 1.996 37.1452C1.796 37.446 1.597 37.6463 1.497 37.9482C1.298 38.1494 1.198 38.4503 0.998999 38.7512C0.898999 39.0531 0.698999 39.353 0.598999 39.6548L0.3 40.5585C0.2 40.8594 0.2 41.0596 0.0999999 41.3615V41.4621C0 41.764 0 42.1645 0 42.3658C0.0999999 42.2652 0.0999999 42.4664 0.0999999 42.6667V43.0682C0.0999999 43.2694 0.2 43.4697 0.2 43.6699C0.3 43.8712 0.3 44.0725 0.4 44.2727C0.498999 44.474 0.598999 44.6742 0.797999 44.8755C0.897999 45.0767 1.098 45.277 1.198 45.4772C1.397 45.6785 1.596 45.8798 1.796 45.9794C1.996 46.1806 2.195 46.3819 2.394 46.4815C3.192 47.1839 3.392 47.3852 4.39 47.9869C4.58999 48.0876 4.68899 48.1882 4.88899 48.2888H4.98899V48.4901C4.98899 48.7899 5.08899 48.9912 5.18799 49.2921C5.28799 49.594 5.38799 49.8948 5.48799 50.0951L5.78599 50.6979C5.78599 50.7985 5.88599 50.7985 5.88599 50.8991C5.98599 51.2 6.18599 51.4003 6.28599 51.6015C6.48499 51.8028 6.58499 52.1037 6.78399 52.3039L7.38299 52.9067L7.98099 53.5084H8.08099C8.28099 53.7097 8.47999 53.8103 8.67999 54.0116C8.87999 54.2128 9.17899 54.3125 9.37799 54.4121C9.57799 54.5127 9.87699 54.714 10.176 54.8146C10.376 54.9152 10.576 55.0148 10.874 55.0148C10.874 55.0148 10.974 55.0148 10.974 55.1155C11.074 55.1155 11.274 55.2161 11.374 55.2161C11.274 57.0224 11.274 58.7291 11.474 59.3318C11.772 60.0342 13.269 57.926 14.666 55.6176C14.466 57.926 14.366 60.637 14.666 61.44C15.065 62.243 16.96 59.6327 18.756 56.8211C42.101 51.4003 63.4509 67.6639 65.7459 90.6546C65.3459 87.04 60.9559 85.0325 58.8619 85.5346C57.8639 87.9437 56.1679 91.1567 53.4749 93.0636C53.6749 90.8545 53.5749 88.646 53.1749 86.4382C52.4769 89.4501 51.0799 92.3613 49.0849 94.7703C45.9919 94.9716 42.8 93.4652 41.203 91.1567C41.103 91.0561 41.003 90.8548 40.904 90.7542C40.804 90.554 40.704 90.2531 40.604 90.0518C40.504 89.8506 40.405 89.5497 40.405 89.3494V88.1449C40.405 87.9436 40.505 87.6418 40.605 87.4415C40.705 87.2413 40.705 86.9394 40.805 86.7391C40.904 86.5379 41.004 86.237 41.203 86.0367C41.802 84.4297 41.802 83.1245 40.704 82.4221L40.106 82.1203C40.006 82.1203 39.806 82.0206 39.706 82.0206C39.606 82.0206 39.507 81.92 39.407 81.92C39.208 81.8194 38.909 81.8194 38.709 81.7187C38.509 81.6181 38.21 81.6181 38.011 81.6181C37.811 81.6181 37.511 81.5185 37.312 81.5185H36.814C36.514 81.5185 36.314 81.5185 36.115 81.6191C35.915 81.6191 35.616 81.7198 35.417 81.7198C35.217 81.8204 34.918 81.8204 34.718 81.921C34.519 82.0206 34.319 82.1213 34.02 82.2209L33.421 82.5228C25.739 87.5421 30.329 99.3882 35.517 102.802C33.521 103.204 31.526 103.605 30.927 104.007L30.827 104.108C32.224 105.01 33.721 105.714 35.317 106.315C37.412 107.019 39.707 107.621 40.704 107.923C43.398 108.524 46.192 108.726 48.9849 108.524C63.5509 107.52 75.5229 96.2767 77.7169 81.6191C77.8169 81.921 77.8169 82.2209 77.9169 82.5228C78.0169 83.1245 78.1169 83.7273 78.2169 84.4297C78.3169 84.7316 78.3169 85.0325 78.3169 85.3333V85.434C78.3169 85.7359 78.4159 86.0367 78.4159 86.3376C78.4159 86.7391 78.5159 87.04 78.5159 87.4415V91.6579C78.5159 91.9598 78.4159 92.161 78.4159 92.4619V92.7628C78.4159 93.0647 78.3159 93.3655 78.3159 93.767C78.2159 94.0679 78.2159 94.3688 78.1159 94.6707V94.7713C78.0159 95.0722 78.0159 95.3731 77.9169 95.674V95.7746C77.8169 96.0765 77.8169 96.3774 77.7169 96.6782V96.7789L77.4179 97.6825V97.7831C77.3179 98.084 77.2179 98.4855 77.1189 98.7864C77.0189 99.0883 76.9189 99.3892 76.7189 99.7907C76.6199 100.092 76.5199 100.493 76.3209 100.794C76.2209 101.096 76.0209 101.397 75.9209 101.798C75.8219 102.1 75.6219 102.401 75.5229 102.702C75.5229 102.803 75.4229 102.903 75.4229 102.903C75.4229 102.903 75.4229 103.004 75.3229 103.004C73.2279 107.32 70.0359 111.135 66.0449 114.146C65.7449 114.348 65.5459 114.549 65.2469 114.749C65.1469 114.85 65.0469 114.85 65.0469 114.95C64.8469 115.151 64.5479 115.251 64.3489 115.452L64.4489 115.653C64.9469 115.552 65.3469 115.552 65.8449 115.452C66.7429 115.351 67.5409 115.15 68.4389 114.949C68.6389 114.949 68.9389 114.849 69.1379 114.748C69.3379 114.748 69.4369 114.648 69.6359 114.648C69.8349 114.648 70.1359 114.548 70.3349 114.548C70.5349 114.447 70.7339 114.447 70.9329 114.347C74.2259 113.545 77.4179 112.44 80.5109 111.135C75.2229 118.363 68.2399 124.186 60.0589 128C63.8499 127.699 67.6409 127.097 71.3319 125.992C84.5862 122.076 95.7709 113.058 102.459 100.895C101.063 108.524 98.0689 115.853 93.5799 122.278C96.7729 120.17 99.6659 117.659 102.36 114.949C109.742 107.219 114.63 97.28 116.227 86.7391C117.325 91.9598 117.724 97.3806 117.225 102.702C141.069 69.2709 119.22 34.6355 110.042 25.4994C110.042 25.3987 109.942 25.3987 109.942 25.2981C109.942 25.7006 109.942 26.1011 109.842 26.5036C109.742 27.3067 109.642 28.0091 109.542 28.7114C109.343 29.4148 109.144 30.2179 108.944 30.9203C108.744 31.6236 108.445 32.326 108.146 33.0284C107.847 33.7308 107.547 34.4342 107.148 35.037C106.749 35.6398 106.35 36.3421 105.951 36.9439C105.552 37.5457 105.053 38.1484 104.554 38.7512C104.056 39.354 103.557 39.8551 102.958 40.4579C102.658 40.7598 102.36 41.0606 101.961 41.2609C101.661 41.4621 101.461 41.6634 101.162 41.9633C100.564 42.4664 99.9649 42.8669 99.2669 43.2684C98.6679 43.6709 97.9699 44.0725 97.2719 44.3733L95.1759 45.277C94.4779 45.5779 93.7799 45.7791 93.0809 45.9794C92.3829 46.1806 91.5849 46.3819 90.8859 46.4815C90.0879 46.5821 89.3899 46.6828 88.6919 46.7834C88.1919 46.7834 87.5939 46.883 87.0949 46.883C86.2969 46.883 85.5989 46.7824 84.9009 46.7824C84.1019 46.6818 83.4039 46.5811 82.7059 46.4805C81.9492 46.3875 81.2099 46.1849 80.5109 45.8787C81.2089 45.7781 82.0069 45.7781 82.7059 45.5779C83.5039 45.4772 84.2019 45.276 84.9009 45.0757C85.5989 44.8745 86.3969 44.6742 86.9959 44.3733L89.0909 43.4697C89.7889 43.1678 90.3879 42.7673 91.0859 42.3658C91.6849 41.9633 92.3829 41.4621 92.9819 41.0606C93.5799 40.5575 94.1789 40.0564 94.6779 39.5542C95.2759 39.0521 95.7749 38.4503 96.2739 37.9482C96.7729 37.3454 97.2719 36.7437 97.6709 36.1409C97.7709 36.0403 97.7709 35.9396 97.8709 35.839C98.1689 35.3379 98.5679 34.7351 98.8679 34.234C99.239 33.5847 99.5719 32.914 99.8649 32.2254C100.165 31.523 100.465 30.8196 100.664 30.1172L101.262 28.0091C101.362 27.206 101.562 26.5036 101.562 25.8003C101.662 24.9972 101.662 24.2948 101.662 23.5914C101.662 23.0903 101.662 22.4875 101.562 21.9854C101.462 21.1824 101.362 20.48 101.262 19.7766C101.162 18.9736 100.962 18.2712 100.763 17.5678C100.563 16.8654 100.264 16.163 100.065 15.4596C99.7649 14.7572 99.4659 14.0548 99.1669 13.4521C98.7679 12.7497 98.4689 12.1469 98.0699 11.4445C97.6699 10.8418 97.1719 10.239 96.7729 9.63723C96.2739 9.03447 95.7749 8.53233 95.2759 7.93057C94.9769 7.62868 94.6779 7.3278 94.3779 7.12755C92.8819 5.92302 91.3849 4.91874 89.7889 3.91447C89.5889 3.81384 89.3899 3.71321 89.0909 3.61258C87.7939 2.50969 86.7969 2.2078 85.7999 1.80629Z" fill="#DF234F"/>
</svg>
