<svg width="112" height="128" viewBox="0 0 112 128" fill="none" xmlns="http://www.w3.org/2000/svg">
<path d="M107.573 28.362L61.4158 1.25757C58.5048 -0.41919 54.7146 -0.41919 51.7806 1.25757L5.13002 28.362C2.12591 30.1097 0 33.3944 0 36.9078V91.0446C0 94.558 2.18138 97.8438 5.1855 99.601L17.5107 106.681C23.4017 109.615 25.4837 109.615 28.1643 109.615C36.8867 109.615 41.8692 104.281 41.8692 94.9772V41.5305C41.8692 40.7757 41.4808 39.6526 40.7481 39.6526H34.8624C34.1171 39.6526 32.4486 40.7757 32.4486 41.5294V94.9761C32.4486 99.1003 28.7599 103.204 21.8662 99.7185L9.13062 92.2948C8.6868 92.0513 8.37383 91.5612 8.37383 91.0446V36.9078C8.37383 36.3975 8.95477 35.8852 9.40172 35.6237L55.9016 8.56587C56.336 8.31711 56.9745 8.31711 57.4079 8.56587L103.34 35.6174C103.78 35.8852 103.625 36.3816 103.625 36.9078V91.0446C103.625 91.5612 103.817 92.064 103.382 92.3128L57.2362 119.386C56.8405 119.627 56.3496 119.627 55.9163 119.386L44.0809 112.242C43.724 112.033 43.3 111.958 42.9578 112.151C39.6647 114.039 39.0576 114.29 35.9687 115.372C35.2088 115.64 34.0878 116.105 36.3979 117.414L51.8874 126.681C53.3662 127.545 55.0438 128 56.7516 128C58.4703 128 60.1534 127.549 61.6366 126.681L107.572 99.601C110.576 97.8311 112 94.558 112 91.0446V36.9078C112 33.3944 110.576 30.1181 107.573 28.362ZM71.0834 82.466C58.8094 82.466 56.1057 79.0416 55.2045 72.8691C55.0998 72.2044 54.5419 71.4094 53.873 71.4094H47.8742C47.1321 71.4094 46.5355 72.3198 46.5355 73.0671C46.5355 80.9703 50.7842 90.546 71.0844 90.546C85.7794 90.546 94.2046 84.7716 94.2046 74.5523C94.2046 64.4197 87.4354 61.7606 73.1841 59.8531C58.7791 57.9276 57.3157 56.9548 57.3157 53.542C57.3157 50.7283 58.5551 46.9757 69.2212 46.9757C78.7517 46.9757 82.2645 49.0441 83.7101 55.5405C83.8336 56.1513 84.3852 56.5896 85.008 56.5896H91.0309C91.4014 56.5896 91.7552 56.4382 92.0148 56.1704C92.266 55.8824 92.3989 55.5215 92.3655 55.134C91.4328 43.9472 84.0837 38.7338 69.2202 38.7338C55.999 38.7338 48.1119 44.3801 48.1119 53.8447C48.1119 64.1106 55.9592 66.9476 68.6508 68.2168C83.8336 69.722 85.0143 71.9662 85.0143 74.9863C85.0143 80.2314 80.8504 82.466 71.0834 82.466Z" fill="#83CD29"/>
</svg>
