<svg width="129" height="68" viewBox="0 0 129 68" fill="none" xmlns="http://www.w3.org/2000/svg">
<path d="M0.26123 34.0005C0.26123 52.7774 28.9152 68.0005 64.2612 68.0005C99.6072 68.0005 128.261 52.7774 128.261 34.0005C128.261 15.2236 99.6062 0.000488281 64.2612 0.000488281C28.9152 0.000488281 0.26123 15.2236 0.26123 34.0005Z" fill="url(#paint0_radial_61_85)"/>
<path d="M64.2612 65.4758C98.2262 65.4758 125.761 51.3828 125.761 34.0005C125.761 16.6163 98.2262 2.52527 64.2612 2.52527C30.2962 2.52527 2.76123 16.6163 2.76123 34.0005C2.76123 51.3828 30.2962 65.4758 64.2612 65.4758Z" fill="#777BB3"/>
<path d="M35.0333 37.9028C37.8263 37.9028 39.9103 37.3827 41.2293 36.3577C42.5353 35.3417 43.4363 33.5835 43.9093 31.1315C44.3493 28.839 44.1813 27.2394 43.4093 26.3749C42.6213 25.4923 40.9163 25.0449 38.3423 25.0449H33.8783L31.4053 37.9028H35.0333ZM20.4343 53.7409C20.3319 53.7408 20.2307 53.7177 20.1382 53.6735C20.0456 53.6292 19.9639 53.5648 19.8989 53.4849C19.8339 53.4049 19.7872 53.3115 19.7622 53.2112C19.7372 53.1109 19.7345 53.0062 19.7543 52.9047L26.3113 18.833C26.3423 18.6738 26.427 18.5302 26.5509 18.4269C26.6749 18.3236 26.8305 18.2669 26.9913 18.2665H41.1253C45.5673 18.2665 48.8733 19.4844 50.9523 21.8869C53.0403 24.3006 53.6863 27.6777 52.8693 31.9202C52.5363 33.6481 51.9643 35.2528 51.1693 36.6909C50.3417 38.1701 49.2858 39.5065 48.0413 40.6497C46.5103 42.0959 44.7773 43.1462 42.8943 43.7632C41.0423 44.3732 38.6623 44.6822 35.8243 44.6822H30.1003L28.4663 53.1734C28.4354 53.3332 28.3505 53.4772 28.2261 53.5807C28.1017 53.6843 27.9455 53.7409 27.7843 53.7409H20.4343Z" fill="black"/>
<path d="M34.4513 25.7456H38.3423C41.4493 25.7456 42.5283 26.4343 42.8953 26.8454C43.5023 27.526 43.6183 28.9631 43.2263 30.998C42.7873 33.2773 41.9732 34.8942 40.8062 35.8011C39.6122 36.7302 37.6683 37.2008 35.0333 37.2008H32.2473L34.4523 25.7466L34.4513 25.7456ZM41.1252 17.5655H26.9923C26.67 17.5655 26.3577 17.6786 26.1089 17.8855C25.8601 18.0924 25.6902 18.3801 25.6283 18.6996L19.0713 52.7723C19.0325 52.9752 19.0387 53.1843 19.0892 53.3846C19.1398 53.5849 19.2335 53.7715 19.3637 53.9309C19.4939 54.0904 19.6574 54.2189 19.8424 54.3071C20.0275 54.3954 20.2296 54.4414 20.4343 54.4416H27.7843C28.1065 54.4413 28.4187 54.3279 28.6673 54.1209C28.9159 53.9138 29.0856 53.626 29.1473 53.3065L30.6723 45.3829H35.8233C38.7353 45.3829 41.1873 45.0618 43.1103 44.4296C45.0873 43.7812 46.9063 42.6815 48.5163 41.1606C49.8126 39.9681 50.9127 38.5749 51.7752 37.0331C52.6062 35.5314 53.2043 33.855 53.5503 32.0534C54.4103 27.5866 53.7113 24.0106 51.4743 21.4253C49.2583 18.8632 45.7762 17.5645 41.1252 17.5645V17.5655ZM30.5623 38.6025H35.0333C37.9963 38.6025 40.2032 38.04 41.6532 36.9109C43.1042 35.7839 44.0813 33.9015 44.5913 31.2646C45.0763 28.7318 44.8553 26.9453 43.9263 25.9041C42.9953 24.8639 41.1353 24.3428 38.3423 24.3428H33.3062L30.5623 38.6025ZM41.1263 18.9652C45.3783 18.9652 48.4793 20.0932 50.4293 22.3463C52.3793 24.6004 52.9653 27.7462 52.1893 31.7847C51.8673 33.449 51.3263 34.9699 50.5643 36.3474C49.8003 37.7269 48.8043 38.9873 47.5733 40.1315C46.1053 41.5181 44.4762 42.5067 42.6812 43.0955C40.8872 43.6853 38.6013 43.9792 35.8243 43.9792H29.5283L27.7853 53.0379H20.4353L26.9933 18.9652H41.1263Z" fill="white"/>
<path d="M69.7203 44.6821C69.6178 44.6822 69.5166 44.6594 69.4238 44.6153C69.3311 44.5713 69.2492 44.507 69.184 44.4271C69.1188 44.3473 69.0719 44.2538 69.0467 44.1535C69.0215 44.0532 69.0187 43.9485 69.0383 43.8469L71.9383 28.7712C72.2153 27.3372 72.1473 26.3091 71.7483 25.8729C71.5033 25.6073 70.7693 25.1619 68.5983 25.1619H63.3423L59.6963 44.1155C59.665 44.2751 59.5798 44.4188 59.4552 44.522C59.3306 44.6251 59.1744 44.6814 59.0133 44.6811H51.7233C51.6209 44.6811 51.5197 44.6584 51.4271 44.6143C51.3344 44.5703 51.2525 44.5062 51.1872 44.4265C51.122 44.3468 51.0749 44.2535 51.0495 44.1533C51.0241 44.0531 51.021 43.9485 51.0403 43.8469L57.5983 9.77419C57.6293 9.61457 57.7143 9.4708 57.8387 9.36746C57.9631 9.26412 58.1192 9.20763 58.2803 9.20764H65.5703C65.6727 9.20757 65.7739 9.23036 65.8665 9.27438C65.9592 9.31839 66.0411 9.38254 66.1064 9.46225C66.1716 9.54195 66.2186 9.63524 66.244 9.73543C66.2694 9.83562 66.2726 9.94024 66.2533 10.0418L64.6713 18.2664H70.3243C74.6313 18.2664 77.5513 19.0319 79.2523 20.6103C80.9853 22.2191 81.5273 24.7913 80.8603 28.2582L77.8093 44.1155C77.778 44.275 77.693 44.4185 77.5686 44.5216C77.4442 44.6248 77.2882 44.6811 77.1273 44.6811H69.7203V44.6821Z" fill="black"/>
<path d="M65.5713 8.50574H58.2803C57.9579 8.50581 57.6455 8.61908 57.3966 8.82616C57.1478 9.03324 56.978 9.32125 56.9163 9.64086L50.3593 43.7126C50.3204 43.9156 50.3264 44.1248 50.3769 44.3252C50.4274 44.5256 50.5211 44.7123 50.6513 44.8719C50.7815 45.0315 50.945 45.16 51.1302 45.2484C51.3153 45.3367 51.5175 45.3827 51.7223 45.3829H59.0133C59.3357 45.3828 59.6481 45.2696 59.8969 45.0625C60.1458 44.8554 60.3156 44.5674 60.3773 44.2478L63.9143 25.8627H68.5963C70.7643 25.8627 71.2203 26.3303 71.2373 26.3515C71.3693 26.4929 71.5423 27.1544 71.2563 28.6379L68.3563 43.7126C68.3174 43.9157 68.3234 44.125 68.3739 44.3255C68.4245 44.5259 68.5183 44.7127 68.6486 44.8723C68.7789 45.0319 68.9426 45.1604 69.1279 45.2487C69.3131 45.337 69.5154 45.3828 69.7203 45.3829H77.1283C77.4505 45.3826 77.7627 45.2692 78.0113 45.0622C78.26 44.8551 78.4296 44.5672 78.4913 44.2478L81.5423 28.3925C82.2573 24.6701 81.6453 21.8787 79.7223 20.0942C77.8863 18.3916 74.8123 17.5645 70.3243 17.5645H65.5143L66.9353 10.1771C66.9744 9.97392 66.9685 9.76452 66.918 9.5639C66.8675 9.36329 66.7738 9.17643 66.6434 9.0167C66.5131 8.85697 66.3494 8.72833 66.164 8.63999C65.9786 8.55166 65.7762 8.50581 65.5713 8.50574ZM65.5713 9.90949L63.8283 18.9662H70.3243C74.4113 18.9662 77.2313 19.6872 78.7813 21.1274C80.3343 22.5675 80.7983 24.8993 80.1793 28.1259L77.1273 43.9802H69.7203L72.6213 28.9045C72.9513 27.1897 72.8293 26.0203 72.2563 25.3962C71.6833 24.7731 70.4633 24.461 68.5983 24.461H62.7693L59.0133 43.9792H51.7213L58.2793 9.90645H65.5713V9.90949Z" fill="white"/>
<path d="M92.3973 37.9028C95.1903 37.9028 97.2753 37.3827 98.5953 36.3577C99.8993 35.3417 100.801 33.5835 101.274 31.1315C101.714 28.839 101.547 27.2394 100.774 26.3749C99.9863 25.4923 98.2813 25.0449 95.7073 25.0449H91.2443L88.7693 37.9028H92.3973ZM77.8013 53.7409C77.6987 53.7411 77.5973 53.7183 77.5045 53.6741C77.4117 53.63 77.3297 53.5656 77.2645 53.4857C77.1993 53.4057 77.1524 53.3121 77.1273 53.2117C77.1022 53.1112 77.0995 53.0064 77.1193 52.9047L83.6763 18.833C83.7073 18.6734 83.7923 18.5296 83.9167 18.4263C84.0411 18.323 84.1972 18.2665 84.3583 18.2665H98.4913C102.933 18.2665 106.239 19.4844 108.317 21.8869C110.406 24.3006 111.051 27.6777 110.234 31.9202C109.922 33.5914 109.349 35.2017 108.535 36.6909C107.707 38.1699 106.652 39.5063 105.407 40.6497C103.877 42.0959 102.142 43.1462 100.26 43.7632C98.4083 44.3732 96.0283 44.6822 93.1893 44.6822H87.4663L85.8333 53.1734C85.8024 53.3333 85.7173 53.4775 85.5927 53.581C85.4681 53.6846 85.3116 53.7411 85.1503 53.7409H77.8013Z" fill="black"/>
<path d="M91.8162 25.7456H95.7072C98.8142 25.7456 99.8932 26.4343 100.259 26.8454C100.869 27.526 100.983 28.9631 100.592 30.998C100.152 33.2773 99.3382 34.8942 98.1712 35.8011C96.9762 36.7302 95.0322 37.2008 92.3982 37.2008H89.6122L91.8162 25.7456ZM98.4902 17.5655H84.3572C84.0351 17.5657 83.7231 17.679 83.4745 17.8858C83.2259 18.0927 83.0561 18.3803 82.9942 18.6996L76.4362 52.7723C76.3975 52.9753 76.4037 53.1845 76.4543 53.3849C76.5049 53.5852 76.5987 53.7718 76.729 53.9313C76.8593 54.0908 77.0229 54.2192 77.2081 54.3075C77.3933 54.3957 77.5955 54.4415 77.8002 54.4416H85.1502C85.4725 54.4413 85.7847 54.3279 86.0333 54.1209C86.2819 53.9138 86.4516 53.626 86.5132 53.3065L88.0382 45.3829H93.1882C96.0992 45.3829 98.5522 45.0618 100.474 44.4296C102.452 43.7812 104.271 42.6815 105.882 41.1595C107.178 39.9674 108.278 38.5745 109.14 37.0331C109.972 35.5314 110.568 33.855 110.915 32.0534C111.775 27.5866 111.077 24.0106 108.839 21.4253C106.623 18.8632 103.142 17.5645 98.4892 17.5645L98.4902 17.5655ZM87.9272 38.6025H92.3972C95.3612 38.6025 97.5672 38.04 99.0192 36.9109C100.469 35.7839 101.447 33.9015 101.955 31.2646C102.442 28.7318 102.221 26.9453 101.29 25.9041C100.36 24.8639 98.4992 24.3428 95.7072 24.3428H90.6722L87.9272 38.6025ZM98.4902 18.9652C102.741 18.9652 105.844 20.0932 107.793 22.3463C109.743 24.6004 110.33 27.7462 109.552 31.7847C109.232 33.449 108.69 34.9699 107.928 36.3474C107.165 37.7269 106.168 38.9873 104.936 40.1315C103.469 41.5181 101.839 42.5067 100.044 43.0955C98.2512 43.6853 95.9662 43.9792 93.1882 43.9792H86.8932L85.1482 53.0379H77.7982L84.3562 18.9652H98.4902Z" fill="white"/>
<defs>
<radialGradient id="paint0_radial_61_85" cx="0" cy="0" r="1" gradientUnits="userSpaceOnUse" gradientTransform="translate(38.6872 11.9536) scale(84.0414 84.8726)">
<stop stop-color="#AEB2D5"/>
<stop offset="0.3" stop-color="#AEB2D5"/>
<stop offset="0.75" stop-color="#484C89"/>
<stop offset="1" stop-color="#484C89"/>
</radialGradient>
</defs>
</svg>
