<svg width="100" height="128" viewBox="0 0 100 128" fill="none" xmlns="http://www.w3.org/2000/svg">
<path d="M42.99 62.917C51.6193 54.7608 48.9859 44.6733 41.1707 32.4492C33.3551 20.2254 17.6228 15.8766 14.6877 18.6506C11.7527 21.4246 11.1026 41.2584 18.9178 53.4824C26.7334 65.7063 34.3604 71.0735 42.99 62.917Z" fill="url(#paint0_linear_37_114)"/>
<path d="M50.4514 64.0458C56.8353 74.0314 65.3701 70.3802 75.9344 60.3952C86.4984 50.4098 90.8792 31.2828 88.7078 27.8868C86.5364 24.4908 70.0358 24.6608 59.4717 34.6461C48.9074 44.6311 44.0674 54.0609 50.4514 64.0458Z" fill="url(#paint1_linear_37_114)"/>
<path d="M46.9606 58.5528C57.5611 59.844 61.7298 50.1288 63.6734 34.4248C65.6171 18.7204 57.6047 2.12219 53.9993 1.68303C50.394 1.24387 38.2815 15.3907 36.3377 31.0951C34.3941 46.7991 36.3602 57.2616 46.9606 58.5528Z" fill="url(#paint2_linear_37_114)"/>
<path d="M44.2913 128C66.5162 128 84.5404 121.596 84.5404 92.5496C84.5404 63.5032 66.5162 39.6681 44.2913 39.6681C22.0659 39.6681 4.05615 63.5032 4.05615 92.5496C4.05615 121.596 22.0659 128 44.2913 128Z" fill="url(#paint3_linear_37_114)"/>
<path d="M64.6198 86.6194C67.7948 86.6194 70.3686 85.4318 70.3686 83.9668C70.3686 82.5019 67.7948 81.3143 64.6198 81.3143C61.4448 81.3143 58.871 82.5019 58.871 83.9668C58.871 85.4318 61.4448 86.6194 64.6198 86.6194Z" fill="#EAADCC"/>
<path d="M22.0463 85.0081C25.1976 85.3919 27.8982 84.5244 28.0781 83.0703C28.2581 81.6163 25.8494 80.1264 22.698 79.7425C19.5467 79.3587 16.8462 80.2262 16.6662 81.6803C16.4862 83.1343 18.895 84.6242 22.0463 85.0081Z" fill="#EAADCC"/>
<path d="M37.6039 81.4898C37.5461 81.4006 37.471 81.3239 37.3829 81.2639C37.2948 81.204 37.1955 81.1621 37.0909 81.1407C36.9863 81.1193 36.8784 81.1188 36.7736 81.1394C36.6688 81.1599 36.5692 81.201 36.4806 81.2602C36.3921 81.3194 36.3163 81.3955 36.2578 81.4842C36.1992 81.5728 36.1592 81.6722 36.1399 81.7764C36.1206 81.8806 36.1224 81.9876 36.1454 82.0911C36.1683 82.1946 36.2118 82.2925 36.2734 82.3791C37.5043 84.1912 39.3972 85.2429 41.8878 85.5254C44.3675 85.8063 46.5816 85.1759 48.4804 83.6452C48.5652 83.5803 48.636 83.4992 48.6886 83.4067C48.7413 83.3143 48.7748 83.2123 48.7872 83.1068C48.7995 83.0013 48.7904 82.8944 48.7605 82.7925C48.7305 82.6905 48.6803 82.5955 48.6128 82.5131C48.5453 82.4307 48.4618 82.3625 48.3673 82.3125C48.2728 82.2626 48.1692 82.2319 48.0626 82.2224C47.956 82.2128 47.8485 82.2244 47.7465 82.2567C47.6445 82.2889 47.5501 82.3411 47.4687 82.4101C45.9066 83.6692 44.1238 84.1768 42.0703 83.9439C40.0273 83.7122 38.5601 82.8976 37.6039 81.4898ZM25.7101 69.2229C26.4648 69.1958 27.2173 69.3169 27.9246 69.5793C28.6319 69.8416 29.28 70.24 29.8316 70.7517C30.3846 71.2618 30.8305 71.8753 31.1437 72.557C31.4569 73.2387 31.6312 73.975 31.6566 74.7237C31.6839 75.4723 31.5618 76.2188 31.2973 76.9204C31.0329 77.622 30.6313 78.2649 30.1156 78.812C29.6013 79.3606 28.9829 79.803 28.2958 80.1137C27.6086 80.4244 26.8664 80.5973 26.1117 80.6225C25.3571 80.6497 24.6045 80.5286 23.8971 80.2662C23.1898 80.0039 22.5418 79.6054 21.9902 79.0938C21.4374 78.5835 20.9916 77.97 20.6786 77.2883C20.3655 76.6067 20.1913 75.8703 20.166 75.1217C20.1386 74.3732 20.2607 73.6266 20.525 72.925C20.7894 72.2234 21.191 71.5805 21.7066 71.0334C22.2208 70.4848 22.8392 70.0425 23.5262 69.7318C24.2133 69.4211 24.9555 69.2481 25.7101 69.2229Z" fill="black"/>
<path d="M26.0117 73.9902C26.0042 73.7457 25.9481 73.505 25.8466 73.2821C25.7452 73.0592 25.6003 72.8584 25.4203 72.6911C25.2404 72.5239 25.0289 72.3936 24.798 72.3077C24.5672 72.2218 24.3215 72.182 24.075 72.1906C23.8286 72.1992 23.5864 72.256 23.3621 72.3577C23.1379 72.4594 22.9361 72.6041 22.7684 72.7834C22.6007 72.9627 22.4704 73.1732 22.3849 73.4026C22.2994 73.632 22.2605 73.876 22.2703 74.1204C22.2877 74.6126 22.5015 75.0778 22.8647 75.4137C23.2278 75.7496 23.7106 75.9285 24.2068 75.9113C24.703 75.894 25.172 75.6819 25.5105 75.3216C25.8491 74.9613 26.0295 74.4824 26.0121 73.9902H26.0117Z" fill="white"/>
<path d="M60.5428 70.6707C61.2975 70.6435 62.0501 70.7645 62.7575 71.0268C63.4648 71.2891 64.113 71.6875 64.6646 72.1991C65.2175 72.7093 65.6633 73.3228 65.9763 74.0045C66.2894 74.6861 66.4636 75.4225 66.4889 76.1711C66.5162 76.9197 66.3942 77.6663 66.1298 78.368C65.8654 79.0697 65.4639 79.7126 64.9482 80.2598C64.434 80.8084 63.8155 81.2507 63.1284 81.5613C62.4413 81.8719 61.699 82.0448 60.9443 82.0699C60.1898 82.097 59.4373 81.9759 58.73 81.7135C58.0228 81.4512 57.3748 81.0527 56.8233 80.5412C56.2703 80.031 55.8244 79.4175 55.5112 78.7358C55.198 78.0542 55.0237 77.3178 54.9983 76.5691C54.9709 75.8205 55.093 75.074 55.3575 74.3724C55.6219 73.6708 56.0236 73.0279 56.5393 72.4808C57.0535 71.9323 57.672 71.49 58.3591 71.1793C59.0463 70.8687 59.7881 70.6958 60.5428 70.6707Z" fill="black"/>
<path d="M25.6679 68.0302C29.5054 67.8972 32.7249 70.8753 32.8589 74.6819C32.9928 78.4889 29.9909 81.6824 26.1534 81.8153C22.3159 81.9483 19.0972 78.9702 18.9632 75.1632C18.8292 71.3566 21.8308 68.1631 25.6679 68.0302ZM30.4538 74.7652C30.3663 72.2762 28.2612 70.3289 25.7518 70.4161C23.2433 70.5029 21.2804 72.5909 21.3683 75.0799C21.4558 77.5693 23.5604 79.5162 26.0694 79.4294C28.5784 79.3426 30.5413 77.2546 30.4538 74.7652ZM60.501 69.4775C64.3385 69.3446 67.5576 72.3227 67.6916 76.1293C67.8256 79.9363 64.8237 83.1298 60.9866 83.2627C57.1491 83.3956 53.9299 80.4176 53.7959 76.611C53.662 72.804 56.6639 69.6105 60.501 69.4775ZM65.2866 76.2126C65.1991 73.7236 63.0944 71.7767 60.585 71.8635C58.076 71.9503 56.1131 74.0386 56.201 76.5277C56.2885 79.0167 58.3932 80.964 60.9022 80.8772C63.4116 80.79 65.3741 78.702 65.2866 76.2126Z" fill="white"/>
<path d="M60.8447 75.4379C60.8375 75.1933 60.7815 74.9525 60.6801 74.7294C60.5788 74.5063 60.4339 74.3053 60.254 74.138C60.074 73.9706 59.8625 73.8401 59.6315 73.7541C59.4006 73.6681 59.1548 73.6283 58.9083 73.6368C58.6617 73.6454 58.4193 73.7022 58.195 73.804C57.9707 73.9058 57.7689 74.0506 57.6011 74.23C57.4334 74.4094 57.3031 74.62 57.2176 74.8496C57.1322 75.0792 57.0934 75.3232 57.1033 75.5677C57.1233 76.0581 57.3382 76.5206 57.7009 76.8543C58.0636 77.188 58.5447 77.3657 59.0391 77.3485C59.5335 77.3314 60.0009 77.1208 60.3393 76.7628C60.6776 76.4048 60.8593 75.9284 60.8447 75.4379Z" fill="white"/>
<path d="M14.8761 94.2294L23.5987 103.233L29.8573 96.6286C30.1259 96.3526 30.4932 96.1926 30.8797 96.1833C31.2663 96.174 31.641 96.3161 31.9227 96.5789C32.2044 96.8416 32.3705 97.2038 32.3851 97.5871C32.3996 97.9705 32.2614 98.344 32.0003 98.627L25.6398 105.34L34.6632 114.655C34.797 114.793 34.9021 114.956 34.9725 115.134C35.0428 115.313 35.077 115.503 35.0732 115.695C35.0694 115.886 35.0275 116.075 34.9501 116.251C34.8726 116.426 34.7611 116.585 34.6218 116.718C34.4825 116.851 34.3182 116.955 34.1383 117.025C33.9585 117.094 33.7665 117.128 33.5734 117.125C33.3802 117.121 33.1898 117.079 33.0128 117.002C32.8359 116.926 32.6759 116.815 32.5421 116.677L23.6226 107.469L19.4331 111.891C19.3008 112.03 19.1421 112.143 18.966 112.221C18.79 112.3 18.6 112.344 18.4069 112.349C18.2139 112.355 18.0216 112.324 17.8409 112.256C17.6603 112.188 17.4949 112.085 17.3542 111.954C17.2135 111.823 17.1002 111.665 17.0209 111.491C16.9415 111.316 16.8976 111.128 16.8916 110.936C16.8857 110.745 16.9178 110.554 16.9862 110.375C17.0546 110.195 17.1579 110.031 17.2902 109.892L21.5816 105.362L12.7554 96.2515C12.6216 96.1133 12.5165 95.9504 12.4461 95.7719C12.3758 95.5935 12.3415 95.403 12.3454 95.2114C12.3492 95.0198 12.3911 94.8309 12.4685 94.6553C12.546 94.4798 12.6575 94.3211 12.7968 94.1884C12.9361 94.0556 13.1003 93.9513 13.2802 93.8815C13.4601 93.8117 13.6521 93.7778 13.8452 93.7816C14.0383 93.7854 14.2288 93.8269 14.4058 93.9038C14.5827 93.9806 14.7423 94.0913 14.8761 94.2294ZM73.453 94.2294C73.7233 93.9504 74.0942 93.7894 74.4842 93.7817C74.6773 93.7779 74.8692 93.8119 75.0491 93.8817C75.229 93.9515 75.3932 94.0558 75.5325 94.1885C75.6717 94.3213 75.7832 94.48 75.8607 94.6555C75.9381 94.8311 75.9799 95.02 75.9837 95.2116C75.9876 95.4031 75.9533 95.5936 75.883 95.772C75.8126 95.9504 75.7075 96.1134 75.5737 96.2515L66.7471 105.362L71.0393 109.892C71.2985 110.165 71.4414 110.527 71.4383 110.903C71.4352 111.278 71.2865 111.638 71.0229 111.907L70.9749 111.954C70.8341 112.085 70.6687 112.188 70.4881 112.256C70.3074 112.323 70.1151 112.355 69.922 112.349C69.729 112.343 69.539 112.3 69.363 112.221C69.1869 112.142 69.0282 112.03 68.8959 111.89L64.7065 107.469L55.787 116.677C55.5248 116.948 55.1674 117.108 54.7893 117.124C54.4112 117.14 54.0414 117.01 53.7569 116.763L53.7073 116.718C53.568 116.585 53.4565 116.426 53.3791 116.251C53.3016 116.075 53.2598 115.886 53.256 115.695C53.2522 115.503 53.2865 115.313 53.3569 115.134C53.4273 114.956 53.5324 114.793 53.6663 114.655L62.6897 105.34L56.3288 98.627C56.0697 98.3535 55.9269 97.9915 55.93 97.6162C55.933 97.2409 56.0817 96.8812 56.3452 96.6119L56.3932 96.565C56.6774 96.3001 57.056 96.1579 57.4458 96.1698C57.8355 96.1818 58.2046 96.3468 58.4717 96.6286L64.7299 103.233L73.453 94.2294Z" fill="#ECB732"/>
<path d="M53.3601 49.1146C53.6357 49.3882 53.7905 49.7592 53.7905 50.146C53.7905 50.5328 53.6357 50.9037 53.3601 51.1773L46.5124 57.9709L50.6858 62.1119C50.9535 62.3773 51.1077 62.7349 51.1164 63.1102C51.1252 63.4855 50.9877 63.8497 50.7327 64.127L50.6858 64.1755C50.41 64.449 50.036 64.6027 49.646 64.6027C49.256 64.6027 48.882 64.449 48.6062 64.1755L44.4319 60.0345L40.2577 64.1755C40.1213 64.3114 39.9591 64.4194 39.7805 64.4931C39.6019 64.5668 39.4105 64.6049 39.217 64.6051C39.0236 64.6053 38.8321 64.5676 38.6533 64.4943C38.4746 64.4209 38.3122 64.3133 38.1755 64.1776C38.0387 64.042 37.9303 63.8808 37.8564 63.7035C37.7825 63.5262 37.7446 63.3361 37.7448 63.1443C37.745 62.9524 37.7834 62.7624 37.8578 62.5853C37.9321 62.4081 38.0409 62.2473 38.178 62.1119L42.3519 57.9709L35.5042 51.1777C35.2366 50.9123 35.0824 50.5548 35.0736 50.1795C35.0649 49.8042 35.2023 49.44 35.4573 49.1626L35.5042 49.1142C35.78 48.8406 36.1541 48.687 36.5441 48.687C36.9341 48.687 37.3081 48.8406 37.5839 49.1142L44.4319 55.9074L51.28 49.1142C51.4165 48.9787 51.5787 48.8712 51.7571 48.7979C51.9356 48.7245 52.1269 48.6868 52.32 48.6868C52.5132 48.6868 52.7044 48.7245 52.8829 48.7979C53.0613 48.8712 53.2235 48.9791 53.3601 49.1146Z" fill="#FFC73B"/>
<defs>
<linearGradient id="paint0_linear_37_114" x1="1355.39" y1="-1020.5" x2="1792.01" y2="1115.33" gradientUnits="userSpaceOnUse">
<stop stop-color="#52CE63"/>
<stop offset="1" stop-color="#51A256"/>
</linearGradient>
<linearGradient id="paint1_linear_37_114" x1="1140.58" y1="1363.5" x2="-1009.84" y2="1809.59" gradientUnits="userSpaceOnUse">
<stop stop-color="#52CE63"/>
<stop offset="1" stop-color="#51A256"/>
</linearGradient>
<linearGradient id="paint2_linear_37_114" x1="1406.97" y1="166.486" x2="999.479" y2="3511.84" gradientUnits="userSpaceOnUse">
<stop stop-color="#8AE99C"/>
<stop offset="1" stop-color="#52CE63"/>
</linearGradient>
<linearGradient id="paint3_linear_37_114" x1="4139.18" y1="1583.1" x2="3481.53" y2="8862.89" gradientUnits="userSpaceOnUse">
<stop stop-color="#FFE56C"/>
<stop offset="1" stop-color="#FFC63A"/>
</linearGradient>
</defs>
</svg>
