<svg width="129" height="114" viewBox="0 0 129 114" fill="none" xmlns="http://www.w3.org/2000/svg">
<path d="M64.2613 68.6249C70.6981 68.6249 75.9162 63.4205 75.9162 57.0006C75.9162 50.5806 70.6981 45.3762 64.2613 45.3762C57.8244 45.3762 52.6063 50.5806 52.6063 57.0006C52.6063 63.4205 57.8244 68.6249 64.2613 68.6249Z" fill="#61DAFB"/>
<path d="M108.53 37.8305C106.281 37.0148 103.929 36.1991 101.475 35.4853C102.089 33.0381 102.6 30.5908 103.009 28.2456C105.156 14.7858 102.804 5.30281 96.2614 1.63197C94.3189 0.510327 92.1719 0.000488281 89.7182 0.000488281C82.5617 0.000488281 73.4626 5.30281 64.2614 14.174C55.0601 5.30281 45.961 0.000488281 38.8045 0.000488281C36.3508 0.000488281 34.2038 0.510327 32.2614 1.63197C25.7182 5.40478 23.3668 14.8878 25.5138 28.2456C25.9227 30.5908 26.4339 33.0381 27.0473 35.4853C24.5936 36.1991 22.2422 36.9128 19.993 37.8305C7.21343 42.725 0.261353 49.4549 0.261353 57.0005C0.261353 64.5461 7.31567 71.276 19.993 76.1704C22.2422 76.9862 24.5936 77.8019 27.0473 78.5157C26.4339 80.9629 25.9227 83.4101 25.5138 85.7554C23.3668 99.2152 25.7182 108.698 32.2614 112.369C34.2038 113.491 36.3508 114 38.8045 114C46.0633 114 55.1623 108.698 64.2614 99.827C73.4626 108.698 82.5617 114 89.7182 114C92.1719 114 94.3189 113.491 96.2614 112.369C102.804 108.596 105.156 99.1132 103.009 85.7554C102.6 83.4101 102.089 80.9629 101.475 78.5157C103.929 77.8019 106.281 77.0881 108.53 76.1704C121.309 71.276 128.261 64.5461 128.261 57.0005C128.261 49.4549 121.309 42.725 108.53 37.8305ZM93.3987 6.73036C97.5904 9.17759 99.0217 16.7232 97.2837 27.4298C96.977 29.5711 96.4658 31.8144 95.8524 34.1597C90.5361 32.9361 84.9131 32.1203 78.9834 31.6105C75.5074 26.716 71.9291 22.3314 68.3508 18.3547C75.9163 10.911 83.584 5.81265 89.8205 5.81265C91.1495 5.81265 92.3764 6.11856 93.3987 6.73036ZM81.9483 67.1973C80.108 70.4602 77.961 73.7232 75.7118 76.9862C71.9291 77.2921 68.1463 77.394 64.2614 77.394C60.2741 77.394 56.4914 77.2921 52.8109 76.9862C50.5617 73.7232 48.5169 70.4602 46.6767 67.1973C44.7342 63.8323 42.8939 60.3654 41.2582 57.0005C42.8939 53.6356 44.7342 50.1686 46.6767 46.8037C48.5169 43.5407 50.6639 40.2778 52.9131 37.0148C56.6959 36.7089 60.4786 36.6069 64.3636 36.6069C68.3508 36.6069 72.1336 36.7089 75.8141 37.0148C78.0633 40.2778 80.108 43.5407 81.9483 46.8037C83.8908 50.1686 85.731 53.6356 87.3668 57.0005C85.6288 60.3654 83.8908 63.7304 81.9483 67.1973ZM90.4339 63.8323C91.9674 67.4012 93.1943 70.8681 94.3189 74.335C90.8428 75.1508 87.1623 75.7626 83.2773 76.2724C84.5042 74.335 85.8332 72.2957 86.9578 70.1543C88.1847 68.013 89.3093 65.8717 90.4339 63.8323ZM64.2614 91.4656C61.8077 88.8144 59.4562 85.9593 57.207 83.0023C59.5585 83.1042 61.9099 83.2062 64.2614 83.2062C66.6128 83.2062 68.9642 83.1042 71.3157 83.0023C69.0665 85.9593 66.715 88.8144 64.2614 91.4656ZM45.2454 76.1704C41.3604 75.6606 37.6799 75.0488 34.2038 74.233C35.3284 70.8681 36.5553 67.2992 38.0888 63.7304C39.2134 65.7697 40.338 67.911 41.5649 69.9504C42.7917 72.1937 44.0185 74.1311 45.2454 76.1704ZM38.0888 50.1686C36.5553 46.5998 35.3284 43.1329 34.2038 39.666C37.6799 38.8502 41.3604 38.2384 45.2454 37.7286C44.0185 39.666 42.6895 41.7053 41.5649 43.8466C40.338 45.988 39.2134 48.1293 38.0888 50.1686ZM64.2614 22.5354C66.715 25.1865 69.0665 28.0416 71.3157 30.9987C68.9642 30.8967 66.6128 30.7948 64.2614 30.7948C61.9099 30.7948 59.5585 30.8967 57.207 30.9987C59.4562 28.0416 61.8077 25.1865 64.2614 22.5354ZM86.9578 43.9486L83.2773 37.8305C87.1623 38.3404 90.8428 38.9522 94.3189 39.7679C93.1943 43.1329 91.9674 46.7017 90.4339 50.2706C89.3093 48.1293 88.1847 45.988 86.9578 43.9486ZM31.239 27.4298C29.501 16.7232 30.9323 9.17759 35.124 6.73036C36.1463 6.11856 37.3732 5.81265 38.7022 5.81265C44.8364 5.81265 52.5042 10.8091 60.1719 18.3547C56.5936 22.2295 53.0153 26.716 49.5393 31.6105C43.6096 32.1203 37.9866 33.0381 32.6703 34.1597C32.0569 31.8144 31.6479 29.5711 31.239 27.4298ZM5.98659 57.0005C5.98659 52.208 11.8141 47.1096 22.0377 43.3368C24.0824 42.5211 26.3316 41.8073 28.5808 41.1955C30.2166 46.2939 32.2614 51.6982 34.715 57.1025C32.2614 62.5067 30.1144 67.8091 28.5808 72.9075C14.4722 68.8288 5.98659 62.7107 5.98659 57.0005ZM35.124 107.271C30.9323 104.823 29.501 97.2778 31.239 86.5712C31.5457 84.4298 32.0569 82.1865 32.6703 79.8413C37.9866 81.0649 43.6096 81.8806 49.5393 82.3905C53.0153 87.2849 56.5936 91.6695 60.1719 95.6463C52.6064 103.09 44.9387 108.188 38.7022 108.188C37.3732 108.188 36.1463 107.882 35.124 107.271ZM97.2837 86.5712C99.0217 97.2778 97.5904 104.823 93.3987 107.271C92.3764 107.882 91.1495 108.188 89.8205 108.188C83.6863 108.188 76.0185 103.192 68.3508 95.6463C71.9291 91.7715 75.5074 87.2849 78.9834 82.3905C84.9131 81.8806 90.5361 80.9629 95.8524 79.8413C96.4658 82.1865 96.8748 84.4298 97.2837 86.5712ZM106.485 70.6642C104.44 71.4799 102.191 72.1937 99.9419 72.8055C98.3061 67.7071 96.2614 62.3028 93.8077 56.8985C96.2614 51.4942 98.4083 46.1919 99.9419 41.0935C114.05 45.1722 122.536 51.2903 122.536 57.0005C122.536 61.793 116.606 66.8914 106.485 70.6642Z" fill="#61DAFB"/>
</svg>
