<svg width="200" height="125" viewBox="0 0 200 125" fill="none" xmlns="http://www.w3.org/2000/svg">
<g clip-path="url(#clip0_59202_26)">
<path d="M200 0H0V125H200V0Z" fill="white"/>
<path d="M99.6435 59.4313C102.13 59.4313 104.146 57.4193 104.146 54.9374C104.146 52.4556 102.13 50.4436 99.6435 50.4436C97.1568 50.4436 95.1409 52.4556 95.1409 54.9374C95.1409 57.4193 97.1568 59.4313 99.6435 59.4313Z" fill="#61DAFB"/>
<path d="M99.6436 71.4633C103.178 74.8941 106.664 76.9236 109.472 76.9236C110.392 76.9236 111.263 76.7303 111.99 76.2954C114.507 74.8458 115.427 71.2217 114.556 66.0514C114.41 65.1333 114.217 64.2152 113.975 63.2488C114.943 62.9589 115.814 62.6689 116.686 62.379C121.576 60.4945 124.287 57.8852 124.287 55.0343C124.287 52.135 121.576 49.5257 116.686 47.6895C115.814 47.3513 114.943 47.0613 113.975 46.8197C114.217 45.8533 114.41 44.9352 114.556 44.0171C115.379 38.7502 114.459 35.0778 111.941 33.6282C111.215 33.1933 110.343 33 109.424 33C106.664 33 103.13 35.0295 99.5952 38.4602C96.1092 35.0295 92.6233 33 89.8152 33C88.8953 33 88.0238 33.1933 87.2976 33.6282C84.78 35.0778 83.8601 38.7018 84.7316 43.8722C84.8768 44.7903 85.0705 45.7084 85.3125 46.6748C84.3442 46.9647 83.4727 47.2546 82.6013 47.5445C77.7113 49.4291 75 52.0384 75 54.8893C75 57.7885 77.7113 60.3979 82.6013 62.2341C83.4727 62.5723 84.3442 62.8622 85.3125 63.1038C85.0705 64.0702 84.8768 64.9883 84.7316 65.9064C83.9085 71.0767 84.8284 74.7491 87.2976 76.1504C88.0238 76.5853 88.8953 76.7786 89.8152 76.7786C92.6233 76.8752 96.1092 74.8458 99.6436 71.4633ZM96.9323 64.94C97.8038 64.9883 98.7237 64.9883 99.6436 64.9883C100.563 64.9883 101.483 64.9883 102.355 64.94C101.483 66.0997 100.563 67.1628 99.6436 68.1775C98.7237 67.1628 97.8038 66.0997 96.9323 64.94ZM90.9288 59.963C91.4129 60.7844 91.8487 61.5576 92.3812 62.3307C90.8803 62.1374 89.4763 61.8958 88.1206 61.6059C88.5564 60.3012 89.0405 58.9482 89.6215 57.5953C90.0089 58.3684 90.4446 59.1898 90.9288 59.963ZM88.1206 48.3177C89.4763 48.0278 90.8803 47.7861 92.3812 47.5929C91.8971 48.366 91.4129 49.1391 90.9288 49.9606C90.4446 50.782 90.0089 51.5552 89.6215 52.3766C88.9921 50.9753 88.508 49.6223 88.1206 48.3177ZM90.7835 54.9376C91.4129 53.633 92.0907 52.3283 92.8654 51.0236C93.5916 49.7673 94.4147 48.511 95.2378 47.2546C96.6902 47.158 98.1427 47.1097 99.6436 47.1097C101.193 47.1097 102.645 47.158 104.049 47.2546C104.921 48.511 105.696 49.7673 106.422 51.0236C107.196 52.3283 107.874 53.633 108.504 54.9376C107.874 56.2423 107.196 57.5469 106.422 58.8516C105.696 60.1079 104.872 61.3643 104.049 62.6206C102.597 62.7173 101.144 62.7656 99.6436 62.7656C98.0943 62.7656 96.6418 62.7173 95.2378 62.6206C94.3663 61.3643 93.5916 60.1079 92.8654 58.8516C92.0907 57.5469 91.4129 56.2423 90.7835 54.9376ZM109.714 52.3283L108.407 49.9123C107.923 49.0908 107.487 48.3177 106.954 47.5445C108.455 47.7378 109.859 47.9794 111.215 48.2694C110.779 49.6223 110.295 50.9753 109.714 52.3283ZM109.714 57.5469C110.295 58.8999 110.779 60.2529 111.215 61.5576C109.859 61.8475 108.455 62.0891 106.954 62.2824C107.439 61.5092 107.923 60.7361 108.407 59.9147C108.843 59.1898 109.278 58.3684 109.714 57.5469ZM110.828 74.3142C110.44 74.5558 109.956 74.6525 109.424 74.6525C107.051 74.6525 104.098 72.7197 101.193 69.8204C102.597 68.3225 103.953 66.6312 105.308 64.7467C107.584 64.5534 109.762 64.2152 111.796 63.732C112.038 64.6018 112.183 65.4715 112.328 66.3413C113.006 70.4486 112.474 73.3961 110.828 74.3142ZM113.345 48.8492C118.768 50.3955 122.012 52.7632 122.012 54.9376C122.012 56.8221 119.785 58.7066 115.863 60.2046C115.088 60.4945 114.217 60.7844 113.345 61.026C112.716 59.0449 111.941 57.0154 110.973 54.9376C111.941 52.8598 112.764 50.8304 113.345 48.8492ZM109.472 35.2228C110.005 35.2228 110.44 35.3194 110.876 35.561C112.474 36.4791 113.055 39.3783 112.377 43.5339C112.232 44.3554 112.038 45.2251 111.844 46.1432C109.811 45.7084 107.632 45.3701 105.357 45.1285C104.049 43.244 102.645 41.5528 101.241 40.0548C104.146 37.2039 107.1 35.2228 109.472 35.2228ZM102.355 44.9352C101.483 44.8869 100.563 44.8869 99.6436 44.8869C98.7237 44.8869 97.8038 44.8869 96.9323 44.9352C97.8038 43.7755 98.7237 42.7125 99.6436 41.6977C100.563 42.7125 101.483 43.8238 102.355 44.9352ZM88.4596 35.561C88.8469 35.3194 89.331 35.2228 89.8636 35.2228C92.236 35.2228 95.1893 37.1556 98.0943 40.0548C96.6902 41.5528 95.3346 43.244 93.9789 45.1285C91.7034 45.3218 89.5247 45.66 87.4912 46.1432C87.2492 45.2735 87.1039 44.4037 86.9587 43.5339C86.2809 39.4267 86.8134 36.5274 88.4596 35.561ZM85.9419 61.026C80.5194 59.4798 77.2755 57.1121 77.2755 54.9376C77.2755 53.0531 79.5027 51.1686 83.4243 49.6707C84.199 49.3807 85.0705 49.0908 85.9419 48.8492C86.5713 50.8304 87.346 52.8598 88.3143 54.9376C87.346 57.0154 86.5229 59.0932 85.9419 61.026ZM86.9587 66.3413C87.1039 65.5199 87.2976 64.6501 87.4912 63.732C89.5247 64.1669 91.7034 64.5051 93.9789 64.7467C95.2862 66.6312 96.6902 68.3225 98.0943 69.8204C95.1893 72.6713 92.236 74.6525 89.8636 74.6525C89.331 74.6525 88.8953 74.5558 88.4596 74.3142C86.8134 73.3961 86.2809 70.4486 86.9587 66.3413ZM84.9252 86.2495C85.9904 84.9448 86.0388 83.4952 85.4578 82.0456C84.8768 80.5959 83.6664 79.9194 82.1655 79.8711C80.3741 79.8228 78.5343 79.8711 76.743 79.8711H76.4041V92.3862H77.8565V87.6508H80.1321C80.4226 87.6508 80.6646 87.7474 80.8099 87.989L83.7148 92.4828C83.7632 92.5795 83.9085 92.7244 84.0053 92.7244H85.8935C84.7316 90.9366 83.618 89.2454 82.456 87.5058C83.4727 87.3608 84.3442 87.0226 84.9252 86.2495ZM77.8565 86.1528V81.3691H78.3891C79.5027 81.3691 80.6646 81.3207 81.7782 81.4174C83.0854 81.4657 84.0053 82.4804 84.0053 83.7851C84.0053 85.0898 82.9402 86.1045 81.6329 86.1528C80.471 86.2011 79.309 86.1528 77.8565 86.1528ZM96.5934 86.781C95.8187 83.3985 92.7201 82.5288 90.3478 83.5918C88.508 84.4133 87.6849 86.0079 87.6365 87.989C87.5881 89.487 88.0238 90.8399 89.1858 91.8547C90.493 93.0144 92.0907 93.1593 93.7369 92.8694C94.6568 92.6761 95.4798 92.2412 96.1092 91.5647C95.8672 91.2265 95.6251 90.8883 95.383 90.5983C94.0274 91.758 92.5265 92.1446 90.8803 91.3715C89.8152 90.8399 89.2826 89.5353 89.1858 88.5689H96.6902V87.9407C96.7386 87.5058 96.6902 87.1192 96.5934 86.781ZM89.2826 87.5541C89.1374 86.1045 90.5898 84.5582 92.1876 84.5582C94.0274 84.5099 95.1893 85.6213 95.2378 87.5541H89.2826ZM104.146 83.3502C103.42 83.2053 102.645 83.1569 101.919 83.2053C100.757 83.3019 99.7404 83.8334 98.9173 84.7032C99.1594 85.0414 99.3531 85.3797 99.6436 85.7663C99.7404 85.6696 99.8372 85.573 99.9341 85.5247C100.709 84.7998 101.629 84.4133 102.742 84.5099C103.614 84.5582 104.437 84.8482 104.679 85.7179C104.872 86.3944 104.824 87.1192 104.872 87.844C104.727 87.844 104.679 87.7957 104.63 87.7474C103.468 86.781 102.161 86.5877 100.757 86.926C99.4499 87.2642 98.6269 88.2789 98.53 89.5836C98.4332 91.0815 99.111 92.1929 100.418 92.7244C101.241 93.0627 102.161 93.0627 103.033 92.8694C103.71 92.7244 104.001 92.3379 104.969 91.8064V92.4345H106.325C106.325 90.5017 106.373 88.134 106.325 85.9112C106.325 84.5099 105.502 83.6401 104.146 83.3502ZM104.824 89.4386C104.776 89.5836 104.824 89.7286 104.824 89.8735C104.824 90.8883 104.582 91.2265 103.614 91.6131C102.936 91.8547 102.21 91.9513 101.483 91.7097C100.66 91.4681 100.079 90.7433 100.079 89.9218C100.031 89.1004 100.563 88.2789 101.387 88.0373C102.5 87.6508 103.517 87.8924 104.437 88.5689C104.727 88.8105 104.921 89.0521 104.824 89.4386ZM112.377 84.6549C113.636 84.2683 114.798 84.5099 115.669 85.573L115.814 85.6696C116.153 85.3797 116.444 85.0898 116.831 84.7515C116.686 84.6066 116.637 84.5099 116.541 84.365C115.137 82.867 112.377 82.6737 110.682 83.8817C108.31 85.6213 108.358 89.0037 109.52 90.7916C110.634 92.4828 112.232 93.0627 114.12 92.8211C115.233 92.6761 116.153 92.1446 116.88 91.2265C116.541 90.9366 116.202 90.6466 115.863 90.3084C115.766 90.405 115.718 90.4534 115.669 90.55C114.362 91.9996 112.183 91.8547 111.021 90.3084C110.343 89.3903 110.198 88.3273 110.392 87.2642C110.489 86.0562 111.118 85.0898 112.377 84.6549ZM122.447 91.2265C122.351 91.2748 122.302 91.3231 122.302 91.3231C121.915 91.6131 121.527 91.6614 121.092 91.5164C120.656 91.3231 120.608 90.9366 120.559 90.55V85.0414C120.559 84.9448 120.559 85.1381 120.608 84.6549H122.447V83.2053H120.511V80.7892H119.058V83.3985H117.799C117.703 83.3985 117.557 83.4952 117.557 83.5918C117.509 83.9301 117.557 84.1717 117.557 84.6549H119.107V90.8399C119.107 91.6131 119.3 92.2896 119.978 92.6761C120.704 93.111 122.108 93.0144 122.738 92.4828C122.835 92.4345 122.883 92.2412 122.883 92.1929C122.738 91.903 122.593 91.5647 122.447 91.2265Z" fill="#61DAFB"/>
</g>
<defs>
<clipPath id="clip0_59202_26">
<rect width="200" height="125" fill="white"/>
</clipPath>
</defs>
</svg>
