<svg width="128" height="78" viewBox="0 0 128 78" fill="none" xmlns="http://www.w3.org/2000/svg">
<path d="M64 0.602539C46.933 0.602539 36.27 9.13254 32 26.1995C38.398 17.6685 45.867 14.4695 54.398 16.6025C59.269 17.8165 62.75 21.3485 66.605 25.2625C72.879 31.6295 80.141 39.0005 96 39.0005C113.066 39.0005 123.73 30.4695 128 13.3985C121.601 21.9345 114.133 25.1335 105.601 23.0005C100.731 21.7855 97.254 18.2545 93.394 14.3405C87.124 7.97354 79.864 0.602539 64 0.602539ZM32 39.0005C14.934 39.0005 4.27 47.5315 0 64.6025C6.398 56.0665 13.866 52.8675 22.398 55.0005C27.269 56.2155 30.75 59.7465 34.605 63.6605C40.879 70.0275 48.141 77.3985 64 77.3985C81.066 77.3985 91.73 68.8685 96 51.8015C89.601 60.3325 82.133 63.5315 73.601 61.3985C68.731 60.1845 65.254 56.6525 61.394 52.7385C55.124 46.3715 47.864 39.0005 32 39.0005Z" fill="#38BDF8"/>
</svg>
