<svg width="129" height="128" viewBox="0 0 129 128" fill="none" xmlns="http://www.w3.org/2000/svg">
<path d="M92.1654 76.8005C92.6774 72.5765 93.0614 68.3525 93.0614 64.0005C93.0614 59.6485 92.6774 55.4245 92.1654 51.2005H113.797C114.821 55.2965 115.461 59.5845 115.461 64.0005C115.461 68.4165 114.821 72.7045 113.797 76.8005M80.8374 112.384C84.6774 105.28 87.6214 97.6005 89.6694 89.6005H108.549C102.349 100.277 92.5117 108.365 80.8374 112.384ZM79.2374 76.8005H49.2854C48.6454 72.5765 48.2614 68.3525 48.2614 64.0005C48.2614 59.6485 48.6454 55.3605 49.2854 51.2005H79.2374C79.8134 55.3605 80.2614 59.6485 80.2614 64.0005C80.2614 68.3525 79.8134 72.5765 79.2374 76.8005ZM64.2614 114.944C58.9494 107.264 54.6614 98.7525 52.0374 89.6005H76.4854C73.8614 98.7525 69.5734 107.264 64.2614 114.944ZM38.6614 38.4005H19.9734C26.11 27.6947 35.94 19.594 47.6214 15.6165C43.7814 22.7205 40.9014 30.4005 38.6614 38.4005ZM19.9734 89.6005H38.6614C40.9014 97.6005 43.7814 105.28 47.6214 112.384C35.9645 108.363 26.1484 100.274 19.9734 89.6005ZM14.7254 76.8005C13.7014 72.7045 13.0614 68.4165 13.0614 64.0005C13.0614 59.5845 13.7014 55.2965 14.7254 51.2005H36.3574C35.8454 55.4245 35.4614 59.6485 35.4614 64.0005C35.4614 68.3525 35.8454 72.5765 36.3574 76.8005M64.2614 12.9925C69.5734 20.6725 73.8614 29.2485 76.4854 38.4005H52.0374C54.6614 29.2485 58.9494 20.6725 64.2614 12.9925ZM108.549 38.4005H89.6694C87.6663 30.4738 84.7002 22.8222 80.8374 15.6165C92.6134 19.6485 102.405 27.7765 108.549 38.4005ZM64.2614 0.000488281C28.8694 0.000488281 0.261353 28.8005 0.261353 64.0005C0.261353 80.9743 7.00419 97.253 19.0065 109.255C24.9495 115.198 32.0048 119.912 39.7696 123.129C47.5344 126.345 55.8568 128 64.2614 128C81.2352 128 97.5139 121.258 109.516 109.255C121.519 97.253 128.261 80.9743 128.261 64.0005C128.261 55.5959 126.606 47.2736 123.39 39.5087C120.173 31.7439 115.459 24.6886 109.516 18.7457C103.573 12.8027 96.5179 8.0885 88.7531 4.8722C80.9883 1.6559 72.666 0.000488281 64.2614 0.000488281Z" fill="black"/>
</svg>
