<svg width="129" height="128" viewBox="0 0 129 128" fill="none" xmlns="http://www.w3.org/2000/svg">
<path fill-rule="evenodd" clip-rule="evenodd" d="M46.352 2.52845C33.9296 6.12713 22.8858 13.3735 14.6631 23.3209C6.4405 33.2683 1.42136 45.4542 0.261353 58.287H29.636C31.3389 38.7596 37.0238 19.7835 46.3428 2.51931L46.352 2.52845ZM29.636 69.7148H0.261353C1.41894 82.548 6.43593 94.7351 14.657 104.684C22.878 114.633 33.9208 121.882 46.3428 125.482C37.0238 108.218 31.3389 89.2421 29.636 69.7148ZM61.0669 127.923C49.9302 110.347 43.1061 90.4061 41.1472 69.7148H87.3663C85.4074 90.4061 78.5834 110.347 67.4467 127.923C65.3213 128.026 63.1922 128.026 61.0669 127.923ZM82.1799 125.473C94.6006 121.873 105.642 114.626 113.863 104.679C122.084 94.7315 127.102 82.5463 128.261 69.7148H98.8867C97.1838 89.2421 91.4989 108.218 82.1799 125.482V125.473ZM98.8867 58.287H128.261C127.104 45.4538 122.087 33.2666 113.866 23.3175C105.645 13.3685 94.6019 6.12012 82.1799 2.51931C91.4992 19.7834 97.1841 38.7596 98.8867 58.287ZM61.0669 0.0783287C63.1952 -0.0254585 65.3275 -0.0254585 67.4558 0.0783287C78.5893 17.6553 85.4102 37.5963 87.3663 58.287H41.1564C43.1483 37.4701 49.9871 17.5126 61.0669 0.0783287Z" fill="#181616"/>
</svg>
