<svg width="117" height="128" viewBox="0 0 117 128" fill="none" xmlns="http://www.w3.org/2000/svg">
<path d="M112.687 98.6418L60.5491 128V105.133L92.9858 87.3656L112.687 98.6418ZM116.261 95.4316V34.083L97.1833 45.0545V84.4805L116.251 95.4214L116.261 95.4316ZM3.83593 98.6418L55.9226 127.98V105.133L23.4756 87.3656L3.83593 98.6418ZM0.261353 95.4316V34.083L19.3394 45.0545V84.4805L0.261353 95.4316ZM2.49801 30.111L55.9736 0.000488281V22.1059L21.7088 40.8487L21.433 41.0011L2.49801 30.111ZM114.004 30.111L60.5491 0.000488281V22.1059L94.8139 40.8386L95.0897 40.991L114.025 30.111H114.004Z" fill="#8ED6FB"/>
<path d="M55.9736 99.932L23.9148 82.3879V47.6653L55.9736 66.0323V99.932ZM60.5491 99.932L92.6079 82.4082V47.6653L60.5491 66.0323V99.932ZM26.0902 43.6831L58.2613 26.0679L90.4325 43.6831L58.2613 62.1314L26.0902 43.6831Z" fill="#1C78C0"/>
</svg>
