<svg width="48" height="48" viewBox="0 0 48 48" fill="none" xmlns="http://www.w3.org/2000/svg">
<rect width="48" height="48" rx="6" fill="white"/>
<path d="M16.8462 31.1535C8.94383 23.2526 5.74223 13.643 9.69263 9.69263C12.8766 6.50703 19.7406 7.97103 26.4207 12.7998M31.1535 16.8462C39.0559 24.7487 42.2575 34.3567 38.3071 38.3071C35.1247 41.4895 28.2751 40.0319 21.5998 35.2159M38.3071 9.69263C42.2591 13.643 39.0559 23.251 31.1551 31.1535C23.251 39.0559 13.643 42.2575 9.69263 38.3071C6.50703 35.1231 7.97103 28.2591 12.7998 21.579C14.021 19.8966 15.3741 18.3141 16.8462 16.8462C24.7487 8.94383 34.3567 5.74223 38.3071 9.69263Z" stroke="#1F2937" stroke-width="2" stroke-linecap="round"/>
<path d="M27.9999 23.9998C27.9999 25.0607 27.5784 26.0781 26.8283 26.8283C26.0781 27.5784 25.0607 27.9999 23.9999 27.9999C22.939 27.9999 21.9216 27.5784 21.1714 26.8283C20.4213 26.0781 19.9998 25.0607 19.9998 23.9998C19.9998 22.939 20.4213 21.9216 21.1714 21.1714C21.9216 20.4213 22.939 19.9998 23.9999 19.9998C25.0607 19.9998 26.0781 20.4213 26.8283 21.1714C27.5784 21.9216 27.9999 22.939 27.9999 23.9998Z" stroke="#1F2937" stroke-width="2"/>
</svg>
