<svg width="26" height="26" viewBox="0 0 26 26" fill="none" xmlns="http://www.w3.org/2000/svg">
<path d="M7.63468 18.3651C1.70787 12.4395 -0.693329 5.23228 2.26947 2.26947C4.65748 -0.119729 9.80548 0.978273 14.8155 4.59988M18.3651 7.63468C24.2919 13.5615 26.6931 20.7675 23.7303 23.7303C21.3435 26.1171 16.2063 25.0239 11.1999 21.4119M23.7303 2.26947C26.6943 5.23228 24.2919 12.4383 18.3663 18.3651C12.4383 24.2919 5.23228 26.6931 2.26947 23.7303C-0.119729 21.3423 0.978273 16.1943 4.59988 11.1843C5.51576 9.92248 6.53056 8.73554 7.63468 7.63468C13.5615 1.70787 20.7675 -0.693329 23.7303 2.26947Z" stroke="#1f2937" stroke-width="2" stroke-linecap="round"/>
<path d="M15.9999 12.9999C15.9999 13.7955 15.6838 14.5586 15.1212 15.1212C14.5586 15.6838 13.7955 15.9999 12.9999 15.9999C12.2042 15.9999 11.4412 15.6838 10.8786 15.1212C10.316 14.5586 9.99988 13.7955 9.99988 12.9999C9.99988 12.2042 10.316 11.4412 10.8786 10.8786C11.4412 10.316 12.2042 9.99988 12.9999 9.99988C13.7955 9.99988 14.5586 10.316 15.1212 10.8786C15.6838 11.4412 15.9999 12.2042 15.9999 12.9999Z" stroke="#1f2937" stroke-width="2"/>
</svg>
