<svg width="24" height="24" viewBox="0 0 24 24" fill="none" xmlns="http://www.w3.org/2000/svg">
<path d="M12 14.2326C13.233 14.2326 14.2326 13.233 14.2326 12C14.2326 10.767 13.233 9.76744 12 9.76744C10.767 9.76744 9.76744 10.767 9.76744 12C9.76744 13.233 10.767 14.2326 12 14.2326Z" stroke="black" stroke-width="1.5"/>
<path fill-rule="evenodd" clip-rule="evenodd" d="M7.36409 1.02363C7.52088 1.18061 7.60894 1.39339 7.60894 1.61526C7.60894 1.83712 7.52088 2.04991 7.36409 2.20688C7.11176 2.45888 6.87995 2.73063 6.67088 3.01953C6.60668 3.10881 6.52551 3.18456 6.43203 3.24247C6.33855 3.30038 6.23457 3.33931 6.12605 3.35703C5.90686 3.39283 5.68244 3.34009 5.50214 3.21042C5.41287 3.14621 5.33711 3.06505 5.2792 2.97157C5.2213 2.87808 5.18237 2.77411 5.16464 2.66558C5.12885 2.4464 5.18158 2.22197 5.31126 2.04167C5.56354 1.69042 5.85302 1.35107 6.17972 1.02363C6.3367 0.866846 6.54949 0.778783 6.77135 0.778783C6.99321 0.778783 7.206 0.866846 7.36298 1.02363M19.2804 5.61712C18.6013 5.44927 17.897 5.40802 17.203 5.49544C16.9824 5.52179 16.7604 5.45944 16.5858 5.32211C16.4112 5.18479 16.2983 4.98372 16.272 4.76316C16.2457 4.5426 16.308 4.32061 16.4453 4.14601C16.5827 3.97142 16.7837 3.85854 17.0043 3.83219C17.9018 3.72045 18.8122 3.77494 19.69 3.99293C19.7967 4.01983 19.897 4.06747 19.9852 4.13314C20.0735 4.1988 20.1479 4.2812 20.2043 4.37563C20.2607 4.47006 20.2979 4.57467 20.3139 4.68349C20.3298 4.79232 20.3242 4.90322 20.2973 5.00986C20.2704 5.11651 20.2228 5.21681 20.1571 5.30504C20.0914 5.39328 20.009 5.46771 19.9146 5.5241C19.8202 5.58049 19.7156 5.61773 19.6067 5.63369C19.4979 5.64965 19.387 5.64402 19.2804 5.61712ZM5.18177 3.87572C5.28842 3.90247 5.38875 3.94996 5.47705 4.01549C5.56534 4.08101 5.63986 4.16329 5.69635 4.25762C5.75285 4.35195 5.79021 4.45648 5.8063 4.56525C5.82239 4.67402 5.8169 4.78489 5.79014 4.89154C5.62216 5.571 5.58091 6.27562 5.66847 6.97005C5.68151 7.07926 5.67292 7.18997 5.64318 7.29586C5.61344 7.40175 5.56314 7.50075 5.49514 7.58719C5.42714 7.67364 5.34278 7.74585 5.24687 7.7997C5.15097 7.85355 5.0454 7.88798 4.93619 7.90102C4.82698 7.91407 4.71626 7.90548 4.61037 7.87574C4.50448 7.846 4.40549 7.79569 4.31904 7.7277C4.23259 7.6597 4.16038 7.57534 4.10653 7.47943C4.05269 7.38353 4.01826 7.27796 4.00521 7.16874C3.89348 6.27121 3.94797 5.36078 4.16595 4.48298C4.22022 4.2678 4.35769 4.08296 4.54817 3.96909C4.73865 3.85523 4.96654 3.82164 5.18177 3.87572ZM15.5665 4.96967C15.6109 5.07031 15.635 5.17869 15.6375 5.28865C15.6399 5.3986 15.6207 5.50796 15.5809 5.61048C15.5411 5.71301 15.4815 5.80668 15.4055 5.88616C15.3295 5.96563 15.2385 6.02935 15.1379 6.07367C14.4705 6.37117 13.8422 6.74944 13.267 7.2C13.0921 7.33512 12.871 7.39564 12.6517 7.36837C12.4324 7.34109 12.2328 7.22824 12.0964 7.05441C11.96 6.88058 11.8978 6.65987 11.9235 6.4404C11.9491 6.22093 12.0605 6.02049 12.2333 5.88279C12.9185 5.34463 13.6681 4.8939 14.4647 4.54102C14.6679 4.45176 14.8981 4.44676 15.1049 4.52714C15.3117 4.60751 15.4781 4.76668 15.5676 4.96967M20.9637 5.32688C21.0935 5.14704 21.2894 5.02606 21.5083 4.99048C21.7272 4.9549 21.9513 5.00764 22.1313 5.13712C22.4833 5.38791 22.8231 5.6774 23.1505 6.00558C23.2304 6.08285 23.2942 6.17526 23.338 6.27742C23.3818 6.37959 23.4049 6.48946 23.4058 6.60062C23.4067 6.71178 23.3855 6.82202 23.3433 6.92489C23.3012 7.02776 23.239 7.1212 23.1603 7.19977C23.0817 7.27834 22.9882 7.34047 22.8853 7.38251C22.7824 7.42456 22.6721 7.44569 22.5609 7.44467C22.4498 7.44365 22.3399 7.42051 22.2378 7.37658C22.1357 7.33266 22.0433 7.26884 21.9661 7.18884C21.7145 6.93693 21.4431 6.7055 21.1546 6.49674C21.0653 6.43255 20.9895 6.3514 20.9316 6.25791C20.8737 6.16443 20.8348 6.06045 20.817 5.95192C20.7993 5.84338 20.8031 5.73242 20.8283 5.62537C20.8535 5.51831 20.8995 5.41615 20.9637 5.32688ZM11.5714 7.57619C11.7485 7.70991 11.8652 7.90848 11.896 8.12827C11.9268 8.34805 11.869 8.57106 11.7354 8.74828C11.664 8.84343 11.5948 8.9402 11.5278 9.03851C11.7147 9.05364 11.8912 9.13109 12.0288 9.25845C12.1665 9.3858 12.2574 9.55568 12.287 9.74086C12.3166 9.92603 12.2831 10.1158 12.192 10.2797C12.1009 10.4436 11.9574 10.5722 11.7846 10.6448C11.5145 10.76 11.2699 10.9273 11.0646 11.1371C10.9194 11.2824 10.726 11.3692 10.521 11.3812C10.316 11.3931 10.1138 11.3293 9.95275 11.2019C9.82495 11.199 9.69949 11.167 9.58601 11.1081C9.47252 11.0493 9.37402 10.9652 9.29805 10.8624C9.22207 10.7596 9.17065 10.6408 9.14772 10.515C9.12479 10.3893 9.13097 10.2599 9.16577 10.1369C9.40019 9.30307 9.83554 8.48707 10.3993 7.74028C10.533 7.56316 10.7316 7.44639 10.9513 7.41562C11.1711 7.38485 11.3941 7.4426 11.5714 7.57619ZM5.14381 8.60651C5.24451 8.56217 5.35297 8.53812 5.46297 8.53572C5.57297 8.53333 5.68236 8.55264 5.7849 8.59256C5.88743 8.63247 5.98109 8.6922 6.06052 8.76834C6.13995 8.84448 6.2036 8.93553 6.24781 9.03628C6.54558 9.70408 6.92422 10.3328 7.37526 10.9083C7.44305 10.9948 7.49314 11.0939 7.52265 11.1998C7.55216 11.3057 7.56052 11.4164 7.54726 11.5256C7.53399 11.6347 7.49935 11.7402 7.44532 11.836C7.3913 11.9317 7.31894 12.0159 7.23237 12.0837C7.14581 12.1515 7.04674 12.2016 6.94082 12.2311C6.8349 12.2606 6.72421 12.269 6.61506 12.2557C6.50591 12.2425 6.40044 12.2078 6.30468 12.1538C6.20891 12.0998 6.12473 12.0274 6.05693 11.9408C5.51884 11.256 5.06812 10.5068 4.71516 9.71051C4.67079 9.60988 4.64668 9.50149 4.64421 9.39154C4.64174 9.28159 4.66095 9.17223 4.70076 9.0697C4.74057 8.96718 4.80018 8.8735 4.8762 8.79403C4.95223 8.71455 5.04316 8.65083 5.14381 8.60651ZM13.0047 9.57098C13.065 9.35743 13.2076 9.17658 13.4013 9.06815C13.5949 8.95973 13.8236 8.93261 14.0372 8.99274C14.8711 9.22716 15.6871 9.66251 16.435 10.2262C16.6052 10.3623 16.7157 10.5595 16.7428 10.7757C16.77 10.992 16.7118 11.2103 16.5805 11.3843C16.4493 11.5583 16.2553 11.6743 16.0399 11.7075C15.8245 11.7408 15.6046 11.6887 15.427 11.5624C15.3321 11.4906 15.2353 11.4214 15.1367 11.3548C15.1216 11.5417 15.0442 11.7181 14.9168 11.8558C14.7895 11.9934 14.6196 12.0844 14.4344 12.1139C14.2492 12.1435 14.0595 12.1101 13.8956 12.019C13.7316 11.9279 13.6031 11.7844 13.5304 11.6115C13.4153 11.3415 13.248 11.0968 13.0381 10.8915C12.893 10.7466 12.8062 10.5534 12.794 10.3487C12.7819 10.144 12.8453 9.9419 12.9723 9.78084C12.9747 9.70985 12.9856 9.63939 13.0047 9.57098ZM17.1159 11.9185C17.2906 11.7814 17.5126 11.7194 17.733 11.746C17.9534 11.7725 18.1543 11.8856 18.2913 12.0603C18.8295 12.7455 19.2802 13.4951 19.6331 14.2917C19.7212 14.4947 19.7254 14.7244 19.6446 14.9305C19.5639 15.1365 19.4048 15.3023 19.2022 15.3914C18.9997 15.4805 18.77 15.4858 18.5636 15.4061C18.3571 15.3263 18.1906 15.1681 18.1005 14.966C17.8027 14.2982 17.4241 13.6694 16.973 13.094C16.9052 13.0074 16.8551 12.9083 16.8256 12.8024C16.7961 12.6965 16.7877 12.5858 16.801 12.4766C16.8143 12.3675 16.8489 12.262 16.9029 12.1663C16.957 12.0705 17.0293 11.9863 17.1159 11.9185ZM9.72056 11.9442C9.82192 11.9014 9.93072 11.879 10.0407 11.8783C10.1508 11.8776 10.2599 11.8985 10.3618 11.94C10.4637 11.9815 10.5564 12.0426 10.6347 12.12C10.7129 12.1973 10.7752 12.2893 10.8179 12.3907C10.9228 12.6407 11.0824 12.8819 11.3101 13.1107C11.4551 13.2558 11.5418 13.449 11.5537 13.6537C11.5656 13.8585 11.502 14.0605 11.3749 14.2214C11.3726 14.3493 11.341 14.475 11.2824 14.5888C11.2238 14.7025 11.1399 14.8013 11.0371 14.8774C10.9343 14.9536 10.8153 15.0051 10.6895 15.028C10.5636 15.0509 10.4341 15.0446 10.3111 15.0095C9.47721 14.774 8.66121 14.3397 7.9133 13.776C7.73597 13.6423 7.61899 13.4437 7.58811 13.2238C7.55724 13.0039 7.61498 12.7807 7.74865 12.6033C7.88232 12.426 8.08096 12.309 8.30088 12.2782C8.52079 12.2473 8.74397 12.305 8.9213 12.4387C9.01805 12.5116 9.11479 12.5808 9.21154 12.6463C9.22399 12.4938 9.27803 12.3476 9.36777 12.2236C9.45752 12.0996 9.57953 12.0037 9.72056 11.9442ZM14.3955 12.7993C14.2345 12.6718 14.0323 12.608 13.8273 12.6199C13.6223 12.6319 13.4289 12.7187 13.2837 12.864C13.0783 13.0734 12.8337 13.2403 12.5637 13.3552C12.3903 13.4275 12.2462 13.556 12.1546 13.7201C12.0631 13.8843 12.0294 14.0744 12.0591 14.26C12.0887 14.4456 12.1799 14.6158 12.318 14.7432C12.4561 14.8707 12.6331 14.9479 12.8205 14.9626C12.7538 15.0612 12.6846 15.158 12.6128 15.2528C12.4865 15.4305 12.4345 15.6504 12.4677 15.8658C12.501 16.0812 12.6169 16.2751 12.7909 16.4064C12.9649 16.5377 13.1833 16.5959 13.3995 16.5687C13.6158 16.5415 13.8129 16.4311 13.949 16.2608C14.5127 15.5129 14.947 14.698 15.1825 13.8631C15.2171 13.7401 15.2231 13.6109 15.2001 13.4853C15.1771 13.3597 15.1256 13.241 15.0497 13.1383C14.9737 13.0357 14.8753 12.9517 14.7619 12.893C14.6485 12.8342 14.5232 12.8021 14.3955 12.7993ZM19.411 16.099C19.6314 16.0729 19.8531 16.1353 20.0275 16.2726C20.2019 16.4099 20.3146 16.6109 20.3408 16.8313C20.4458 17.7131 20.4067 18.6184 20.1801 19.517C20.1217 19.7278 19.9832 19.9073 19.7941 20.0172C19.605 20.1272 19.3804 20.1588 19.1684 20.1052C18.9563 20.0517 18.7737 19.9173 18.6594 19.7308C18.5451 19.5444 18.5084 19.3206 18.557 19.1073C18.7289 18.4264 18.7613 17.7265 18.6787 17.03C18.6656 16.9207 18.6742 16.81 18.7039 16.7041C18.7336 16.5982 18.7839 16.4992 18.8519 16.4127C18.9199 16.3263 19.0043 16.2541 19.1002 16.2002C19.1962 16.1464 19.3017 16.112 19.411 16.099ZM1.19777 16.81C1.35474 16.6533 1.56753 16.5652 1.7894 16.5652C2.01126 16.5652 2.22405 16.6533 2.38102 16.81C2.64819 17.075 2.91907 17.306 3.19367 17.5033C3.28532 17.5664 3.36346 17.6472 3.4235 17.741C3.48354 17.8347 3.52429 17.9395 3.54336 18.0491C3.56243 18.1588 3.55944 18.2712 3.53456 18.3797C3.50968 18.4882 3.46341 18.5906 3.39847 18.681C3.33352 18.7714 3.2512 18.848 3.15632 18.9062C3.06144 18.9644 2.9559 19.0031 2.84588 19.02C2.73586 19.037 2.62357 19.0318 2.51558 19.0048C2.40758 18.9778 2.30605 18.9296 2.21693 18.8629C1.85427 18.6015 1.51343 18.311 1.19777 17.9944C1.04099 17.8374 0.952923 17.6247 0.952923 17.4028C0.952923 17.1809 1.04099 16.967 1.19777 16.81ZM12.2567 16.9429C12.3246 17.0294 12.3746 17.1285 12.4042 17.2344C12.4337 17.3404 12.442 17.451 12.4288 17.5602C12.4155 17.6694 12.3809 17.7748 12.3268 17.8706C12.2728 17.9664 12.2004 18.0505 12.1139 18.1183C11.429 18.6564 10.6798 19.1071 9.88354 19.4601C9.68051 19.5482 9.45085 19.5524 9.24478 19.4716C9.03871 19.3909 8.87299 19.2318 8.78387 19.0292C8.69475 18.8266 8.68948 18.597 8.7692 18.3905C8.84892 18.1841 9.00716 18.0176 9.2093 17.9274C9.87711 17.6297 10.5058 17.251 11.0813 16.8C11.1679 16.7322 11.2669 16.6821 11.3728 16.6526C11.4788 16.6231 11.5895 16.6147 11.6986 16.628C11.8078 16.6412 11.9132 16.6759 12.009 16.7299C12.1048 16.7839 12.189 16.8563 12.2567 16.9429ZM4.04986 18.9913C4.10412 18.7761 4.2416 18.5912 4.43208 18.4774C4.62255 18.3635 4.85045 18.3299 5.06567 18.384C5.74514 18.552 6.44976 18.5932 7.14419 18.5057C7.2534 18.4926 7.36411 18.5012 7.47 18.531C7.57589 18.5607 7.67489 18.611 7.76133 18.679C7.84778 18.747 7.91999 18.8314 7.97384 18.9273C8.02769 19.0232 8.06212 19.1287 8.07516 19.238C8.08821 19.3472 8.07962 19.4579 8.04988 19.5638C8.02014 19.6697 7.96983 19.7687 7.90184 19.8551C7.83384 19.9416 7.74948 20.0138 7.65357 20.0676C7.55767 20.1215 7.4521 20.1559 7.34288 20.1689C6.44528 20.2803 5.53485 20.2254 4.65712 20.0071C4.44194 19.9528 4.2571 19.8153 4.14323 19.6249C4.02937 19.4344 3.99578 19.2065 4.04986 18.9913ZM18.8461 20.7907C19.0262 20.9203 19.1474 21.1161 19.1832 21.335C19.2189 21.5539 19.1664 21.7781 19.037 21.9583C18.7847 22.3103 18.4953 22.65 18.1686 22.9775C18.0106 23.1299 17.7991 23.2142 17.5796 23.2122C17.36 23.2102 17.1501 23.122 16.9949 22.9667C16.8398 22.8114 16.7518 22.6014 16.75 22.3819C16.7482 22.1624 16.8327 21.9509 16.9853 21.7931C17.2372 21.5414 17.4686 21.2701 17.6774 20.9816C17.7416 20.8923 17.8227 20.8165 17.9162 20.7586C18.0097 20.7007 18.1137 20.6617 18.2222 20.644C18.3308 20.6263 18.4417 20.6301 18.5488 20.6553C18.6558 20.6805 18.7569 20.7265 18.8461 20.7907Z" fill="black"/>
<path fill-rule="evenodd" clip-rule="evenodd" d="M10.5779 12.557C11.0467 13.1051 11.6406 13.3953 12.3472 13.3953C12.5157 13.3953 12.6731 13.4445 12.8048 13.5304C13.1907 13.1149 13.4021 12.567 13.3953 12C13.3953 11.8777 13.422 11.7568 13.4737 11.6459C13.5254 11.535 13.6008 11.4368 13.6945 11.3581C13.4826 11.1185 13.2216 10.9271 12.9292 10.7971C12.6368 10.6671 12.3199 10.6015 12 10.6047C11.8456 10.6049 11.6942 10.5624 11.5624 10.4819C10.9373 10.9641 10.6047 11.5914 10.6047 12.3483C10.604 12.4187 10.595 12.4887 10.5779 12.557ZM9.58661 10.1615C9.45888 9.33015 9.4555 8.48443 9.57656 7.65209C10.0186 4.53767 12.0301 1.67442 15.6971 1.67442C15.9192 1.67442 16.1321 1.58621 16.2891 1.42921C16.4461 1.2722 16.5343 1.05925 16.5343 0.837209C16.5343 0.615168 16.4461 0.40222 16.2891 0.245213C16.1321 0.0882058 15.9192 0 15.6971 0C10.8793 0 8.42679 3.83553 7.91888 7.41767C7.66437 9.21712 7.87088 11.0679 8.57079 12.5057C9.024 13.4389 9.70493 14.2259 10.608 14.6735C9.72279 14.8778 8.69916 14.9191 7.65209 14.7706C4.53767 14.3297 1.67442 12.317 1.67442 8.65116C1.67442 8.42912 1.58621 8.21617 1.42921 8.05917C1.2722 7.90216 1.05925 7.81395 0.837209 7.81395C0.615168 7.81395 0.40222 7.90216 0.245213 8.05917C0.0882058 8.21617 0 8.42912 0 8.65116C0 13.469 3.83553 15.9215 7.41767 16.4294C9.21712 16.6839 11.0679 16.4763 12.5057 15.7775C13.4746 15.3064 14.2873 14.5887 14.7248 13.6331C14.8833 14.4603 14.9057 15.3946 14.7706 16.3479C14.3297 19.4623 12.317 22.3256 8.65116 22.3256C8.42912 22.3256 8.21617 22.4138 8.05917 22.5708C7.90216 22.7278 7.81395 22.9408 7.81395 23.1628C7.81395 23.3848 7.90216 23.5978 8.05917 23.7548C8.21617 23.9118 8.42912 24 8.65116 24C13.469 24 15.9215 20.1645 16.4294 16.5823C16.6839 14.7829 16.4763 12.9321 15.7775 11.4943C15.3913 10.6995 14.8398 10.0097 14.1254 9.54642C14.864 9.46033 15.6107 9.47046 16.3468 9.57656C19.4634 10.0186 22.3256 12.0301 22.3256 15.6971C22.3256 15.9192 22.4138 16.1321 22.5708 16.2891C22.7278 16.4461 22.9408 16.5343 23.1628 16.5343C23.3848 16.5343 23.5978 16.4461 23.7548 16.2891C23.9118 16.1321 24 15.9192 24 15.6971C24 10.8793 20.1645 8.42679 16.5823 7.91888C14.7829 7.66437 12.9321 7.87088 11.4943 8.57079C10.7219 8.94586 10.0499 9.47721 9.58661 10.1615Z" fill="black"/>
</svg>
