<svg width="128" height="125" viewBox="0 0 128 125" fill="none" xmlns="http://www.w3.org/2000/svg">
<path fill-rule="evenodd" clip-rule="evenodd" d="M63.9995 0C28.6582 0 0 28.6518 0 63.9995C0 92.2772 18.3378 116.266 43.7667 124.729C46.9642 125.323 48.1384 123.341 48.1384 121.651C48.1384 120.125 48.0791 115.083 48.0515 109.735C30.2468 113.607 26.4898 102.184 26.4898 102.184C23.5785 94.7868 19.3838 92.8198 19.3838 92.8198C13.5761 88.8476 19.8215 88.9303 19.8215 88.9303C26.2471 89.3807 29.6321 95.5255 29.6321 95.5255C35.3402 105.307 44.604 102.48 48.2561 100.846C48.8305 96.7093 50.4891 93.8849 52.3194 92.2867C38.1042 90.6705 23.1599 85.1818 23.1599 60.659C23.1599 53.6717 25.661 47.9625 29.7551 43.4795C29.0895 41.8686 26.8989 35.3593 30.374 26.5439C30.374 26.5439 35.7472 24.8238 47.9773 33.1041C53.0835 31.685 58.5595 30.9717 63.9995 30.9473C69.4363 30.9717 74.9155 31.6829 80.0311 33.1019C92.2464 24.8217 97.6133 26.5417 97.6133 26.5417C101.097 35.3561 98.9062 41.8665 98.2417 43.4774C102.345 47.9604 104.828 53.6696 104.828 60.6568C104.828 85.238 89.8566 90.6493 75.6054 92.2348C77.902 94.2209 79.9474 98.1167 79.9474 104.087C79.9474 112.65 79.8732 119.542 79.8732 121.65C79.8732 123.353 81.0263 125.348 84.2693 124.72C109.683 116.248 128 92.2666 128 63.9995C127.999 28.6539 99.3439 0 63.9995 0Z" fill="#1f2937"/>
<path d="M24.2399 91.8881C24.099 92.206 23.5987 92.3014 23.143 92.0841C22.6767 91.8764 22.4171 91.4429 22.5675 91.1239C22.7053 90.7954 23.2066 90.7053 23.6697 90.9247C24.1361 91.1335 24.401 91.5712 24.2389 91.8891L24.2399 91.8881ZM26.8322 94.7803C26.528 95.0632 25.9314 94.9318 25.5265 94.4835C25.1068 94.0384 25.0284 93.4417 25.3389 93.1545C25.6548 92.8726 26.2334 93.0062 26.6531 93.4513C27.0707 93.9027 27.1533 94.4941 26.8333 94.7813L26.8322 94.7803ZM29.3567 98.4652C28.9645 98.7386 28.3223 98.4832 27.9259 97.9141C27.5338 97.3439 27.5338 96.6604 27.9365 96.388C28.3318 96.1146 28.9645 96.3615 29.3673 96.9253C29.7573 97.5029 29.7573 98.1875 29.3567 98.4652ZM32.8127 102.027C32.4629 102.414 31.7147 102.31 31.1679 101.783C30.6093 101.267 30.4536 100.533 30.8043 100.147C31.1604 99.7592 31.9118 99.8673 32.4619 100.391C33.0204 100.906 33.1889 101.641 32.8148 102.026L32.8127 102.027ZM37.5818 104.095C37.426 104.596 36.7075 104.824 35.9815 104.61C35.2576 104.391 34.7839 103.804 34.9323 103.298C35.0807 102.792 35.8045 102.556 36.5347 102.784C37.2586 103.002 37.7323 103.585 37.5818 104.095ZM42.8204 104.477C42.8384 105.005 42.2237 105.442 41.4639 105.452C40.6976 105.471 40.0776 105.042 40.0702 104.523C40.0702 103.99 40.6722 103.559 41.4374 103.544C42.1972 103.53 42.8215 103.954 42.8215 104.476L42.8204 104.477ZM47.6934 103.649C47.7845 104.163 47.2557 104.692 46.5 104.833C45.7582 104.97 45.0693 104.65 44.9739 104.14C44.8828 103.613 45.4212 103.084 46.163 102.947C46.9197 102.817 47.598 103.126 47.6934 103.649Z" fill="#1f2937"/>
</svg>
