<svg width="128" height="128" viewBox="0 0 128 128" fill="none" xmlns="http://www.w3.org/2000/svg">
<path d="M125.585 58.2994L69.699 2.41505C66.4826 -0.803309 61.2627 -0.803309 58.0413 2.41505L46.4373 14.021L61.1582 28.742C64.5804 27.587 68.5025 28.3617 71.2291 31.0883C73.9698 33.8321 74.7384 37.7877 73.5551 41.221L87.7427 55.4096C91.175 54.2263 95.1366 54.9908 97.8764 57.7366C101.709 61.5664 101.709 67.775 97.8764 71.6068C96.9656 72.5181 95.8841 73.241 94.6938 73.7342C93.5035 74.2274 92.2277 74.4813 90.9393 74.4813C89.6508 74.4813 88.375 74.2274 87.1847 73.7342C85.9944 73.241 84.913 72.5181 84.0021 71.6068C82.6337 70.2375 81.7008 68.494 81.321 66.5957C80.9412 64.6974 81.1314 62.7292 81.8677 60.9388L68.6373 47.7084L68.6353 82.5294C69.5952 83.0021 70.4716 83.6282 71.2301 84.3829C75.0609 88.2127 75.0609 94.4193 71.2301 98.2572C67.3983 102.087 61.1877 102.087 57.3599 98.2572C53.5291 94.4203 53.5291 88.2138 57.3599 84.3829C58.2777 83.4637 59.3693 82.7364 60.5712 82.2435V47.1C59.3684 46.6085 58.2764 45.8806 57.3599 44.9595C54.4579 42.0595 53.7593 37.8008 55.2478 34.2357L40.7347 19.7226L2.41448 58.0408C0.86849 59.5873 0 61.6845 0 63.8712C0 66.0579 0.86849 68.1551 2.41448 69.7016L58.3019 125.586C61.5202 128.804 66.7382 128.804 69.9616 125.586L125.586 69.9612C127.132 68.4142 128 66.3169 128 64.1301C128 61.9433 127.131 59.846 125.585 58.2994Z" fill="#F34F29"/>
</svg>
