<svg width="128" height="124" viewBox="0 0 128 124" fill="none" xmlns="http://www.w3.org/2000/svg">
<path fill-rule="evenodd" clip-rule="evenodd" d="M63.9995 0.000488281C28.6582 0.000488281 0 28.4599 0 63.5702C0 91.6579 18.3378 115.486 43.7667 123.892C46.9642 124.482 48.1384 122.513 48.1384 120.834C48.1384 119.318 48.0791 114.311 48.0515 108.999C30.2468 112.844 26.4898 101.498 26.4898 101.498C23.5785 94.1507 19.3838 92.1969 19.3838 92.1969C13.5761 88.2515 19.8215 88.3336 19.8215 88.3336C26.2471 88.781 29.6321 94.8844 29.6321 94.8844C35.3402 104.601 44.604 101.792 48.2561 100.169C48.8305 96.0603 50.4891 93.2549 52.3194 91.6674C38.1042 90.0621 23.1599 84.6102 23.1599 60.2521C23.1599 53.3117 25.661 47.6409 29.7551 43.188C29.0895 41.5879 26.8989 35.1223 30.374 26.3661C30.374 26.3661 35.7472 24.6576 47.9773 32.8822C53.0835 31.4727 58.5595 30.7642 63.9995 30.74C69.4363 30.7642 74.9155 31.4706 80.0311 32.8801C92.2464 24.6555 97.6133 26.364 97.6133 26.364C101.097 35.1192 98.9062 41.5858 98.2417 43.1859C102.345 47.6388 104.828 53.3096 104.828 60.25C104.828 84.666 89.8566 90.041 75.6054 91.6158C77.902 93.5886 79.9474 97.4583 79.9474 103.388C79.9474 111.894 79.8732 118.739 79.8732 120.833C79.8732 122.525 81.0263 124.507 84.2693 123.883C109.683 115.468 128 91.6474 128 63.5702C127.999 28.462 99.3439 0.000488281 63.9995 0.000488281Z" fill="#181616"/>
<path d="M24.2399 91.8887C24.099 92.2067 23.5987 92.3021 23.143 92.0848C22.6767 91.8771 22.4171 91.4436 22.5675 91.1246C22.7053 90.7961 23.2066 90.706 23.6697 90.9254C24.1361 91.1342 24.401 91.5718 24.2389 91.8898L24.2399 91.8887ZM26.8322 94.7809C26.528 95.0639 25.9314 94.9325 25.5265 94.4842C25.1068 94.0391 25.0284 93.4424 25.3389 93.1552C25.6548 92.8733 26.2334 93.0068 26.6531 93.4519C27.0707 93.9034 27.1533 94.4948 26.8333 94.782L26.8322 94.7809ZM29.3567 98.4659C28.9645 98.7393 28.3223 98.4839 27.9259 97.9148C27.5338 97.3446 27.5338 96.661 27.9365 96.3887C28.3318 96.1152 28.9645 96.3622 29.3673 96.926C29.7573 97.5036 29.7573 98.1882 29.3567 98.4659ZM32.8127 102.028C32.4629 102.415 31.7147 102.311 31.1679 101.784C30.6093 101.268 30.4536 100.534 30.8043 100.148C31.1604 99.7599 31.9118 99.868 32.4619 100.392C33.0204 100.907 33.1889 101.642 32.8148 102.027L32.8127 102.028ZM37.5818 104.096C37.426 104.597 36.7075 104.825 35.9815 104.611C35.2576 104.391 34.7839 103.805 34.9323 103.299C35.0807 102.793 35.8045 102.557 36.5347 102.785C37.2586 103.003 37.7323 103.586 37.5818 104.096ZM42.8204 104.478C42.8384 105.006 42.2237 105.443 41.4639 105.453C40.6976 105.471 40.0776 105.043 40.0702 104.524C40.0702 103.991 40.6722 103.559 41.4374 103.544C42.1972 103.531 42.8215 103.955 42.8215 104.477L42.8204 104.478ZM47.6934 103.649C47.7845 104.163 47.2557 104.692 46.5 104.833C45.7582 104.971 45.0693 104.651 44.9739 104.141C44.8828 103.613 45.4212 103.085 46.163 102.948C46.9197 102.817 47.598 103.127 47.6934 103.649Z" fill="#181616"/>
</svg>
