<svg width="128" height="128" viewBox="0 0 128 128" fill="none" xmlns="http://www.w3.org/2000/svg">
<path d="M0 0H128V128.001H0V0Z" fill="#F0DB4F"/>
<path d="M117.525 97.4723C116.587 91.6329 112.779 86.728 101.5 82.1543C97.5818 80.3537 93.2137 79.0644 91.912 76.095C91.4499 74.367 91.3885 73.3936 91.6809 72.3476C92.5204 68.9529 96.5726 67.8946 99.7842 68.8681C101.853 69.5613 103.811 71.1554 104.992 73.6983C110.515 70.1216 110.504 70.1451 114.361 67.6871C112.949 65.4979 112.195 64.4877 111.271 63.5511C107.949 59.8404 103.422 57.9294 96.183 58.0756L92.412 58.5633C88.7985 59.4764 85.3548 61.3732 83.3353 63.9161C77.276 70.7914 79.0041 82.8241 86.3773 87.776C93.6411 93.228 104.312 94.4682 105.675 99.5664C107.001 105.808 101.088 107.828 95.2106 107.11C90.8793 106.21 88.4703 104.008 85.866 100.005C81.0726 102.779 81.0726 102.779 76.1441 105.613C77.3128 108.169 78.5409 109.325 80.5 111.539C89.7719 120.944 112.974 120.482 117.136 106.246C117.305 105.758 118.425 102.498 117.525 97.4723ZM69.5848 58.8292H57.6124L57.5634 89.7822C57.5634 96.365 57.9038 102.4 56.8333 104.249C55.0818 107.887 50.5429 107.437 48.4744 106.731C46.3691 105.696 45.2985 104.225 44.0582 102.145C43.7178 101.548 43.4621 101.086 43.3762 101.05L33.6421 107.011C35.2607 110.333 37.6452 113.217 40.6994 115.09C45.2617 117.828 51.3936 118.668 57.8067 117.195C61.9805 115.98 65.5818 113.461 67.4672 109.628C70.1932 104.602 69.6083 98.5194 69.5838 91.7914C69.6452 80.8149 69.5848 69.8404 69.5848 58.8292Z" fill="#323330"/>
</svg>
