<svg width="128" height="96" viewBox="0 0 128 96" fill="none" xmlns="http://www.w3.org/2000/svg">
<path fill-rule="evenodd" clip-rule="evenodd" d="M0 40.0536C0 40.7703 0.211033 41.2434 0.329293 41.7032C1.10002 44.6933 2.75668 47.2593 4.72224 49.6001C7.52174 52.9358 10.9503 55.6211 14.4624 58.1464C17.5086 60.3362 20.617 62.4771 23.6754 64.6507C24.2005 65.0238 24.6969 65.453 25.2668 65.9108C24.7765 66.1758 24.3687 66.4093 23.9446 66.6244C19.9084 68.6715 16.0252 70.9664 12.4458 73.7465C10.2886 75.4225 8.20275 77.2036 6.7296 79.531C4.3593 83.2746 3.52027 87.2628 5.28703 91.5212C5.80289 92.7649 6.58993 93.8395 7.70015 94.6336C8.06002 94.8906 8.46374 95.1454 8.88478 95.2453C9.96339 95.4992 11.0624 95.6654 12.1543 95.8662L15.2463 95.8642C18.6657 95.5593 21.7782 94.3879 24.5909 92.4468C28.9869 89.4129 31.9485 85.3451 33.2218 80.1244C34.1475 76.3299 34.1853 72.5313 33.0944 68.7541C32.99 68.4042 32.8696 68.0592 32.7335 67.7203C32.601 67.3809 32.445 67.0505 32.2615 66.6275L39.2715 62.5964L39.3765 62.6861C39.249 63.1031 39.1134 63.5191 38.9982 63.9401C38.1653 66.9822 37.6117 70.0774 37.8105 73.2347C38.0226 76.599 38.9615 79.7482 40.9312 82.5589C42.5236 84.8323 46.3181 84.917 48.0104 82.6354C48.6109 81.8249 49.193 80.9777 49.6304 80.0734C50.7732 77.7133 51.8315 75.3114 52.9233 72.9258L53.114 72.4895C53.0355 73.6191 52.9437 74.611 52.9019 75.604C52.8367 77.1546 52.9274 78.6961 53.4575 80.1713C53.9112 81.4334 54.683 82.3764 56.1286 82.5426C57.1175 82.6558 57.9055 82.2031 58.6324 81.6291C59.7585 80.7392 60.6919 79.6297 61.3759 78.3678C63.3139 74.8088 65.3039 71.2712 67.0605 67.6225C68.9608 63.6761 70.6226 59.6144 72.3873 55.6007L72.6788 54.8891C73.0958 56.5275 73.3864 58.1321 73.9216 59.6511C74.5435 61.4138 75.3132 63.1347 76.1512 64.8077C76.5478 65.5978 76.5019 66.1106 75.9524 66.7732C73.6525 69.5462 71.3923 72.3529 69.13 75.1564C68.6295 75.7753 68.1309 76.4053 67.714 77.0812C67.461 77.5081 67.2947 77.9806 67.2246 78.4718C67.1545 78.924 67.2621 79.3858 67.5249 79.7604C67.7878 80.135 68.1854 80.3933 68.6346 80.4812C69.541 80.6764 70.4704 80.7426 71.3953 80.678C74.5527 80.4455 77.4194 79.3373 79.9539 77.4595C83.2376 75.027 84.2918 71.7075 83.4966 67.7734C83.2815 66.706 82.9012 65.6681 82.5311 64.6395C82.3649 64.1756 82.3537 63.8504 82.6565 63.4181C85.2817 59.6695 87.5245 55.6925 89.6104 51.6237C89.693 51.4637 89.7776 51.3036 89.9224 51.1324C90.5983 54.6496 91.6157 58.0393 93.4386 61.1151C92.5088 62.0112 91.5882 62.8238 90.7553 63.7189C88.9212 65.6906 87.3308 67.8315 86.501 70.4424C86.1442 71.5679 85.8699 72.7117 86.029 73.9137C86.2757 75.7804 87.8049 76.9935 89.641 76.5684C93.5701 75.659 96.9619 73.8077 99.4402 70.528C101.108 68.3198 101.26 65.8567 100.562 63.2764C100.37 62.575 100.143 61.8848 99.898 61.0805C100.868 60.7797 101.813 60.4188 102.79 60.1956C107.866 59.0374 112.887 59.2393 117.779 61.0723C120.634 62.1428 122.941 63.934 124.309 66.7518C125.98 70.1967 125.057 73.4651 121.81 75.6427C121.507 75.8456 121.16 76.0057 120.91 76.2595C120.829 76.3526 120.769 76.4615 120.733 76.579C120.697 76.6966 120.686 76.8204 120.701 76.9426C120.722 77.068 121.053 77.225 121.244 77.2229C122.311 77.2148 123.177 76.6551 124.008 76.0801C126.089 74.6396 127.609 72.7015 127.936 70.1498L128 69.9581L127.921 68.2964C127.89 68.2005 127.945 68.1057 127.938 68.0333C127.495 64.3173 125.51 61.4352 122.623 59.1761C119.279 56.5611 115.331 55.4845 111.155 55.3143C107.768 55.1685 104.386 55.6891 101.2 56.8466C100.285 57.1779 99.3791 57.5704 98.4595 57.9405C98.3361 57.7172 98.2036 57.5031 98.0945 57.2819C97.1505 55.3489 96.0066 53.5016 95.7538 51.2853C95.5744 49.7112 95.3542 48.1392 95.7283 46.5824C96.0882 45.0848 96.5571 43.6127 96.9986 42.1354C97.2259 41.3749 97.0659 40.9488 96.34 40.6062C96.0871 40.4801 95.8171 40.3915 95.5387 40.3432C93.7546 40.0842 91.995 40.2321 90.2669 40.7347C89.6553 40.9131 89.2108 41.2556 89.0752 41.9326C88.9977 42.321 88.8397 42.6931 88.7296 43.0764C88.2779 44.6699 87.9578 46.2939 87.2279 47.8119C85.3989 51.6197 83.311 55.2837 81.1742 58.9212C80.9428 59.3137 80.6991 59.6991 80.4075 60.1752C79.6572 58.6052 78.8569 57.1962 78.6143 55.5447C78.34 53.677 78.1239 51.8124 78.5888 49.9589C78.9344 48.5765 79.386 47.2196 79.802 45.8555C79.9987 45.2071 79.908 44.8666 79.3208 44.5251C79.0241 44.3528 78.6887 44.1999 78.3543 44.1499C76.5249 43.8713 74.6558 44.0242 72.896 44.5965C72.3424 44.7759 72.0519 45.1337 71.8826 45.7046C71.3851 47.3888 70.961 49.1138 70.2627 50.7154C67.4346 57.1993 64.525 63.6496 61.6185 70.0988C61.0119 71.4455 60.3013 72.7454 59.6172 74.0564C59.4439 74.3888 59.1911 74.6814 58.975 74.9933C58.8017 74.7884 58.7344 74.6477 58.7354 74.507C58.7405 73.6782 58.6416 72.8249 58.7996 72.0236C59.2849 69.6001 59.8212 67.1871 60.4084 64.7863C60.8875 62.8024 61.4452 60.8368 61.9763 58.8661C62.1547 58.2065 62.1578 57.5898 61.6837 57.0352C60.8875 56.1064 59.2237 55.9025 58.2369 56.6182L57.8005 56.8649L57.8851 56.1615C58.0931 54.6536 58.1349 53.1509 57.721 51.6655C57.2052 49.8142 55.8839 48.7488 53.9632 48.8079C53.0681 48.8355 52.1281 48.9884 51.2993 49.3146C47.8137 50.6807 45.1335 53.1 42.8519 56.0106C42.6404 56.2808 42.3782 56.5073 42.0801 56.6773C39.1308 58.3126 36.1722 59.9274 33.2147 61.5484L29.9228 63.3519C29.0399 62.5098 28.2376 61.6361 27.3272 60.8949C24.5471 58.6276 21.7221 56.4163 18.9226 54.1745C16.4412 52.1875 14.0372 50.118 12.1981 47.4867C10.83 45.5293 9.9481 43.3874 9.86349 40.9671C9.75644 37.8832 10.6312 35.0653 12.2012 32.4422C14.2095 29.0861 16.9489 26.3926 19.9604 23.953C23.1463 21.3737 26.5922 19.1838 30.1634 17.1846C35.1599 14.3882 40.2991 11.9129 45.8094 10.2787C51.4594 8.60264 57.1919 7.64331 63.1049 8.31209C65.4293 8.57512 67.6864 9.10729 69.759 10.244C71.3464 11.1136 72.6483 12.2524 73.2538 14.0324C73.8512 15.7839 73.8329 17.5588 73.419 19.3378C72.5779 22.9406 70.6052 25.9104 68.1228 28.5641C64.051 32.9142 59.0841 35.8758 53.4922 37.8322C50.277 38.9585 46.9319 39.6721 43.537 39.9558C40.7548 40.1892 38.0307 39.9425 35.3964 38.975C33.6521 38.3338 32.133 37.353 30.9117 35.9298C30.6935 35.675 30.4142 35.3987 30.0074 35.6373C29.6088 35.8717 29.5385 36.251 29.672 36.6353C29.8953 37.2735 30.1012 37.9382 30.4489 38.5091C31.3226 39.9415 32.5969 40.9804 33.9997 41.8714C36.6942 43.5851 39.7058 44.1611 42.8284 44.2947C47.567 44.4996 52.1903 43.7921 56.7484 42.5208C63.2558 40.7061 68.9139 37.5009 73.4516 32.4442C77.2298 28.2338 79.9284 23.482 80.5064 17.7443C80.7888 14.9438 80.4881 12.2004 79.177 9.64557C77.7548 6.87768 75.4936 4.81935 72.79 3.40125C68.8527 1.3368 64.6035 0.134827 60.2177 0.134827H55.8238C50.5123 0.134827 45.3771 1.65691 40.3857 3.47261C36.6075 4.84789 32.9028 6.4709 29.306 8.26723C21.4733 12.181 14.179 16.9002 8.18746 23.3892C5.20242 26.622 2.67512 30.1891 1.22134 34.3894C0.782559 35.6434 0.404571 36.9179 0.0886949 38.2084M28.47 74.923C28.1306 79.4689 26.0702 83.1543 22.7028 86.1393C20.8086 87.8174 18.6361 89.0122 16.1058 89.4322C15.1882 89.5842 14.2493 89.6208 13.3593 89.2406C12.09 88.6982 11.8056 87.5717 11.7811 86.3718C11.7434 84.4592 12.4132 82.7302 13.3318 81.0847C14.5307 78.9397 16.2883 77.3045 18.1651 75.7773C21.1216 73.3703 24.3289 71.3334 27.6137 69.4106L27.8614 69.3087C28.3691 71.1845 28.6107 73.0369 28.47 74.923ZM54.1182 55.1665C53.8786 56.6182 53.5789 58.0709 53.1548 59.4778C51.6887 64.3479 49.8058 69.0671 47.7699 73.7231C47.3937 74.5845 46.8462 75.3705 46.3701 76.1871C46.2891 76.3127 46.1921 76.4271 46.0816 76.5276C45.4923 77.1098 44.9337 77.0792 44.636 76.3176C44.2893 75.4327 44.0763 74.4856 43.8928 73.5487C43.7694 72.9197 43.799 72.2591 43.7602 71.6148C43.8 67.0332 45.1977 62.8697 47.569 58.9936C48.5467 57.395 49.611 55.8719 51.2371 54.8606C51.743 54.5461 52.2903 54.3038 52.8632 54.1408C53.7297 53.8972 54.2619 54.2979 54.1182 55.1665ZM71.6165 77.4605L77.9057 70.1171C78.1677 72.8443 73.5322 78.2883 71.6165 77.4605ZM91.7034 72.519C91.2589 72.7739 90.7746 72.9574 90.3189 73.1929C89.902 73.4091 89.7643 73.1909 89.7521 72.832C89.746 72.5836 89.7779 72.3357 89.8469 72.097C90.6961 69.1017 92.259 66.5449 94.5845 64.4651L94.7476 64.3815C95.8537 67.4757 94.5753 70.8736 91.7034 72.519Z" fill="#CB6699"/>
</svg>
