<svg width="128" height="128" viewBox="0 0 128 128" fill="none" xmlns="http://www.w3.org/2000/svg">
<path d="M21.6781 46.6847H123.74V122.123H21.6781V46.6847Z" fill="white"/>
<path d="M0 64.0005V128H128V0.000488281H0V64.0005ZM103.148 58.8805C106.213 59.5919 109 61.1954 111.155 63.4885C112.342 64.7239 113.373 66.0994 114.227 67.5845C114.227 67.7483 108.698 71.4859 105.329 73.5749C105.206 73.6568 104.714 73.1243 104.172 72.3154C103.557 71.2542 102.683 70.3661 101.632 69.734C100.58 69.1019 99.3863 68.7464 98.1606 68.7006C94.2797 68.4344 91.7811 70.4722 91.8016 73.8206C91.7695 74.6543 91.9604 75.4815 92.3546 76.2168C93.2045 77.9883 94.7917 79.043 99.7683 81.1934C108.933 85.1358 112.855 87.7368 115.292 91.4334C118.016 95.5294 118.62 102.144 116.777 107.039C114.729 112.364 109.711 115.979 102.615 117.177C99.3739 117.548 96.0992 117.514 92.8666 117.074C87.9121 116.258 83.3483 113.879 79.8413 110.285C78.6637 108.985 76.3699 105.595 76.5133 105.35C76.8871 105.072 77.2807 104.822 77.6909 104.602L82.432 101.981L86.1082 99.8507L86.8762 100.987C88.1723 102.841 89.8218 104.421 91.7299 105.636C95.8259 107.787 101.417 107.49 104.182 105.001C105.11 104.09 105.689 102.881 105.818 101.586C105.947 100.292 105.618 98.9925 104.888 97.9154C103.864 96.492 101.816 95.2939 96.0922 92.7954C89.4874 89.9486 86.6406 88.1874 84.0397 85.3816C82.416 83.5301 81.2171 81.3457 80.5274 78.9816C80.0128 76.2808 79.9368 73.5147 80.3021 70.7896C81.664 64.4101 86.4461 59.9557 93.4298 58.6347C96.664 58.2346 99.9401 58.3243 103.148 58.901V58.8805ZM73.1034 64.2463V69.4891H56.4838V116.829H44.6976V69.4789H28.0371V64.3589C27.9852 62.5933 28.0262 60.8261 28.16 59.0648C28.2419 58.9727 38.4 58.9727 50.688 58.9727H73.0419L73.1034 64.2463Z" fill="#007ACC"/>
</svg>
