<svg width="128" height="128" viewBox="0 0 128 128" fill="none" xmlns="http://www.w3.org/2000/svg">
<path d="M127.576 18.944L67.4495 126.33C66.207 128.547 63.0176 128.56 61.7583 126.355L0.43823 18.9565C-0.936139 16.5499 1.1207 13.6384 3.85165 14.1245L64.0434 24.8685C64.4275 24.9385 64.8211 24.9385 65.2052 24.8685L124.137 14.1412C126.856 13.6467 128.926 16.5342 127.576 18.944Z" fill="url(#paint0_linear_36_97)"/>
<path d="M92.7136 0.0319421L48.2209 8.73837C47.8657 8.80768 47.5437 8.99283 47.3054 9.26474C47.067 9.53666 46.9259 9.87994 46.9041 10.2407L44.1647 56.4157C44.15 56.6689 44.1945 56.9221 44.2947 57.1552C44.3949 57.3882 44.5481 57.5948 44.7421 57.7585C44.936 57.9222 45.1655 58.0386 45.4123 58.0984C45.6591 58.1582 45.9165 58.1598 46.164 58.103L58.5532 55.2438C58.82 55.1825 59.098 55.1892 59.3616 55.2631C59.6251 55.3371 59.8659 55.4759 60.0618 55.667C60.2576 55.858 60.4023 56.0951 60.4826 56.3566C60.5628 56.618 60.5761 56.8953 60.5211 57.1632L56.8397 75.1646C56.7834 75.4417 56.8002 75.7286 56.8882 75.9973C56.9763 76.266 57.1327 76.5072 57.3421 76.6974C57.5515 76.8876 57.8068 77.0202 58.083 77.0823C58.3591 77.1444 58.6467 77.1339 58.9175 77.0517L66.5671 74.7277C67.753 74.368 68.894 75.4093 68.6448 76.622L62.7936 104.898C62.4293 106.667 64.7845 107.631 65.7663 106.115L66.4205 105.103L102.68 32.8316C103.289 31.6189 102.239 30.2389 100.911 30.4961L88.1561 32.955C87.8816 33.0082 87.5981 32.9901 87.3326 32.9024C87.0672 32.8146 86.8288 32.6602 86.6404 32.4539C86.4519 32.2477 86.3197 31.9965 86.2565 31.7245C86.1932 31.4525 86.2011 31.1688 86.2793 30.9007L94.6008 2.08623C94.6791 1.81718 94.6866 1.53254 94.6227 1.25974C94.5588 0.986948 94.4256 0.735199 94.2359 0.528764C94.0463 0.322329 93.8065 0.168171 93.5399 0.0811513C93.2733 -0.00586872 92.9887 -0.0228164 92.7136 0.0319421Z" fill="url(#paint1_linear_36_97)"/>
<defs>
<linearGradient id="paint0_linear_36_97" x1="-1.06049" y1="10.2873" x2="73.6545" y2="111.882" gradientUnits="userSpaceOnUse">
<stop stop-color="#41D1FF"/>
<stop offset="1" stop-color="#BD34FE"/>
</linearGradient>
<linearGradient id="paint1_linear_36_97" x1="60.5892" y1="2.39462" x2="74.0937" y2="95.149" gradientUnits="userSpaceOnUse">
<stop stop-color="#FFEA83"/>
<stop offset="0.083" stop-color="#FFDD35"/>
<stop offset="1" stop-color="#FFA800"/>
</linearGradient>
</defs>
</svg>
